<?xml version="1.0" standalone="no"?>
<!DOCTYPE svg PUBLIC "-//W3C//DTD SVG 20010904//EN"
 "http://www.w3.org/TR/2001/REC-SVG-20010904/DTD/svg10.dtd">
<svg version="1.0" xmlns="http://www.w3.org/2000/svg"
 width="1864.000000pt" height="1864.000000pt" viewBox="0 0 1864.000000 1864.000000"
 preserveAspectRatio="xMidYMid meet">
<metadata>
Created by potrace 1.14, written by Peter Selinger 2001-2017
</metadata>
<g transform="translate(0.000000,1864.000000) scale(0.100000,-0.100000)"
fill="#000000" stroke="none">
<path d="M18630 12413 c0 -5 -7 -48 -15 -97 -7 -49 -14 -92 -13 -95 0 -3 -1
-9 -2 -13 -4 -13 -6 -21 -14 -71 -8 -53 -10 -65 -26 -142 -5 -27 -12 -61 -14
-75 -2 -14 -14 -68 -26 -120 -12 -52 -24 -104 -26 -115 -2 -11 -6 -29 -8 -40
-10 -47 -31 -127 -58 -225 -17 -58 -31 -112 -32 -120 -1 -9 -5 -20 -9 -26 -3
-6 -9 -25 -12 -42 -3 -17 -10 -44 -16 -59 -6 -15 -12 -35 -14 -43 -9 -37 -111
-318 -141 -390 -72 -166 -231 -458 -256 -468 -4 -2 -8 -8 -8 -14 0 -5 -21 -35
-47 -66 -148 -177 -298 -276 -452 -299 -25 -3 -3729 -7 -8231 -8 -4502 -2
-8194 -5 -8205 -8 -11 -3 -21 -6 -22 -7 -2 -2 -6 -3 -10 -4 -5 -1 -29 -11 -55
-23 -128 -58 -259 -187 -366 -360 -70 -112 -189 -366 -204 -433 -2 -8 -6 -17
-9 -20 -3 -3 -11 -23 -16 -45 -6 -22 -24 -83 -40 -135 -16 -52 -31 -99 -33
-105 -1 -5 -4 -14 -6 -20 -1 -5 -10 -44 -19 -85 -9 -41 -18 -82 -20 -90 -7
-28 -34 -155 -38 -180 -3 -14 -8 -41 -11 -60 -3 -19 -9 -48 -12 -65 -3 -16 -7
-39 -9 -50 -12 -76 -15 -95 -21 -140 -3 -27 -8 -59 -10 -70 -2 -11 -7 -46 -10
-77 -5 -53 -11 -93 -14 -93 0 0 -3 -27 -6 -60 -2 -33 -6 -76 -9 -95 -2 -19 -6
-66 -10 -105 -3 -38 -8 -97 -10 -130 -23 -274 -34 -502 -41 -890 -5 -284 -2
-357 10 -235 11 121 16 167 22 200 3 19 8 58 11 85 5 61 10 100 13 100 1 0 3
14 5 30 1 17 6 50 10 75 4 25 9 60 11 78 2 18 5 41 8 50 3 9 7 31 10 47 18
121 20 133 36 210 5 28 12 61 14 75 3 14 5 25 6 25 1 0 3 11 5 25 2 14 10 54
19 90 8 36 17 76 19 90 3 14 22 90 42 170 21 80 40 156 43 170 2 14 8 30 12
35 4 6 11 26 16 45 11 49 11 49 14 55 1 3 3 8 5 13 1 4 4 14 7 22 3 8 21 58
39 110 18 52 40 113 50 135 26 59 52 119 54 125 2 8 78 154 92 175 7 11 15 27
19 35 13 27 110 154 145 190 47 47 107 100 115 100 3 0 18 9 33 19 15 11 56
29 91 42 l65 22 8235 2 c7844 1 8238 2 8290 19 123 40 231 107 330 206 70 70
180 209 180 228 0 7 3 12 8 12 14 0 118 202 176 342 30 73 101 277 111 318 2
8 13 45 24 83 11 37 17 67 15 67 -3 0 0 8 5 18 5 9 12 33 15 52 3 19 11 53 16
75 6 22 13 54 16 70 2 17 7 41 11 55 10 41 11 43 17 85 4 23 8 50 10 60 2 11
7 40 11 65 4 25 9 52 10 60 2 8 8 51 14 95 7 44 14 96 17 115 3 19 7 53 9 75
2 22 4 40 4 40 1 0 4 18 6 40 2 22 6 65 9 95 3 30 8 89 11 130 4 41 8 95 10
120 2 25 7 95 10 155 3 61 8 144 11 185 7 131 15 610 9 610 -3 0 -5 -3 -5 -7z"/>
</g>
</svg>
