<svg width="142" height="141" viewBox="0 0 142 141" fill="none" xmlns="http://www.w3.org/2000/svg">
<g clip-path="url(#clip0_3947_53)">
<g filter="url(#filter0_d_3947_53)">
<path d="M70.8797 141C110.026 141 141.759 109.66 141.759 71C141.759 32.3401 110.026 1 70.8797 1C31.7339 1 0 32.3401 0 71C0 109.66 31.7339 141 70.8797 141Z" fill="black"/>
</g>
<path d="M70.8797 141C110.026 141 141.759 109.66 141.759 71C141.759 32.3401 110.026 1 70.8797 1C31.7339 1 0 32.3401 0 71C0 109.66 31.7339 141 70.8797 141Z" fill="white"/>
<path fill-rule="evenodd" clip-rule="evenodd" d="M49.4768 59.2335H52.7007V85.3297H48.1275V63.8605L43.4053 65.1558L42.4307 61.4548L49.4768 59.2335Z" fill="#005896"/>
<path fill-rule="evenodd" clip-rule="evenodd" d="M69.2665 63.916C68.417 63.2131 67.2802 62.8613 65.8567 62.8613C64.4318 62.8613 63.2943 63.2131 62.4455 63.916C61.5953 64.6196 61.1709 65.4775 61.1709 66.4884C61.1709 67.6491 61.6145 68.5861 62.5018 69.3021C63.3883 70.0182 64.5066 70.3752 65.8567 70.3752C67.2054 70.3752 68.3237 70.0182 69.2109 69.3021C70.0968 68.5861 70.5418 67.6609 70.5418 66.5257C70.5418 65.4893 70.116 64.6196 69.2665 63.916ZM70.9351 76.3354C70.6477 75.8417 70.2597 75.4226 69.7724 75.0767C69.2864 74.7314 68.7044 74.4659 68.0304 74.2802C67.3557 74.0958 66.63 74.003 65.8567 74.003C65.0813 74.003 64.357 74.0958 63.6823 74.2802C63.0076 74.4659 62.4263 74.7314 61.939 75.0767C61.4523 75.4226 61.0643 75.8417 60.7776 76.3354C60.4896 76.8291 60.3466 77.3712 60.3466 77.9636C60.3466 79.0739 60.8332 80.0057 61.8085 80.7583C62.7825 81.5116 64.1319 81.8876 65.8567 81.8876C67.5801 81.8876 68.9295 81.5116 69.9041 80.7583C70.8781 80.0057 71.3654 79.0739 71.3654 77.9636C71.3654 77.3712 71.2217 76.8291 70.9351 76.3354ZM75.1143 81.2952C74.6137 82.2335 73.9145 83.0293 73.0154 83.6825C72.1156 84.3371 71.0529 84.8367 69.8293 85.1819C68.6044 85.5272 67.2802 85.6998 65.8567 85.6998C64.4318 85.6998 63.1069 85.5206 61.8827 85.1636C60.6584 84.8059 59.5964 84.3064 58.6973 83.6642C57.7981 83.0228 57.0976 82.2387 56.5984 81.3135C56.0985 80.3882 55.8489 79.3701 55.8489 78.2598C55.8489 76.6558 56.2607 75.348 57.0857 74.3358C57.91 73.3249 59.072 72.5101 60.571 71.8935C59.4713 71.3259 58.5596 70.5792 57.8352 69.6539C57.1102 68.728 56.748 67.5379 56.748 66.0817C56.748 65.095 56.9791 64.1697 57.4412 63.3053C57.9034 62.4415 58.5344 61.6948 59.3342 61.0657C60.1341 60.4367 61.0895 59.943 62.2018 59.5853C63.3135 59.2276 64.5311 59.0485 65.8567 59.0485C67.1551 59.0485 68.3681 59.2276 69.4917 59.5853C70.6166 59.943 71.578 60.4367 72.3785 61.0657C73.1776 61.6948 73.8086 62.4415 74.2701 63.3053C74.7329 64.1697 74.9647 65.095 74.9647 66.0817C74.9647 67.5379 74.6012 68.728 73.8768 69.6539C73.1525 70.5792 72.2401 71.3259 71.1403 71.8935C72.5658 72.535 73.7086 73.3497 74.57 74.3358C75.4328 75.3238 75.8631 76.5943 75.8631 78.1487C75.8631 79.3087 75.6135 80.3575 75.1143 81.2952Z" fill="#005896"/>
<path fill-rule="evenodd" clip-rule="evenodd" d="M95.185 68.7836C94.871 67.6491 94.422 66.6618 93.835 65.8222C93.248 64.9839 92.542 64.3176 91.717 63.8239C90.893 63.3302 89.968 63.083 88.944 63.083C87.9186 63.083 87.0003 63.3243 86.1892 63.8049C85.3761 64.2862 84.6829 64.9407 84.1082 65.7666C83.5335 66.5944 83.0899 67.5753 82.7787 68.7098C82.4655 69.8449 82.3099 71.0546 82.3099 72.3376C82.3099 73.6453 82.4655 74.8609 82.7787 75.983C83.0899 77.1064 83.5401 78.0931 84.1274 78.9445C84.714 79.7965 85.4205 80.4628 86.2455 80.9434C87.0698 81.4247 87.9934 81.6653 89.018 81.6653C90.043 81.6653 90.962 81.4247 91.773 80.9434C92.585 80.4628 93.279 79.8024 93.854 78.9634C94.428 78.1245 94.871 77.1437 95.185 76.0203C95.496 74.8975 95.653 73.6944 95.653 72.4114C95.653 71.1285 95.496 69.9195 95.185 68.7836ZM99.588 77.5752C99.039 79.2165 98.263 80.6413 97.264 81.8504C96.265 83.0601 95.059 84.0161 93.648 84.719C92.236 85.4226 90.668 85.7744 88.944 85.7744C87.2201 85.7744 85.6575 85.4285 84.2585 84.738C82.8594 84.0468 81.6597 83.0967 80.6599 81.8876C79.6608 80.6786 78.8921 79.2597 78.3551 77.6308C77.8175 76.002 77.5493 74.262 77.5493 72.4114C77.5493 70.5603 77.8241 68.815 78.3736 67.1738C78.9232 65.5331 79.6979 64.1077 80.6977 62.898C81.6974 61.6896 82.9031 60.7329 84.3148 60.0293C85.7264 59.3264 87.2949 58.9746 89.018 58.9746C90.743 58.9746 92.304 59.3205 93.703 60.011C95.103 60.7022 96.302 61.6523 97.302 62.8613C98.301 64.0704 99.07 65.4893 99.608 67.1182C100.144 68.747 100.413 70.4864 100.413 72.3376C100.413 74.1881 100.138 75.934 99.588 77.5752Z" fill="#005896"/>
<path fill-rule="evenodd" clip-rule="evenodd" d="M70.8797 130.308C103.993 130.308 130.934 103.703 130.934 70.9997C130.934 38.2972 103.993 11.6917 70.8797 11.6917C37.7663 11.6917 10.8257 38.2972 10.8257 70.9997C10.8257 103.703 37.7663 130.308 70.8797 130.308ZM70.8797 129.436C103.507 129.436 130.05 103.222 130.05 70.9997C130.05 38.7778 103.507 12.5639 70.8797 12.5639C38.2529 12.5639 11.7089 38.7778 11.7089 70.9997C11.7089 103.222 38.2529 129.436 70.8797 129.436Z" stroke="#005896" stroke-width="0.666"/>
<path fill-rule="evenodd" clip-rule="evenodd" d="M97.349 33.1498C97.349 33.1498 96.189 24.6786 82.9365 21.9211C86.7814 32.832 97.349 33.1498 97.349 33.1498ZM84.272 23.2008C88.105 28.6758 96.761 32.8712 96.761 32.8712C96.761 32.8712 87.1667 29.5037 84.272 23.2008Z" fill="#005896"/>
<path fill-rule="evenodd" clip-rule="evenodd" d="M86.3225 116.547C86.4132 114.367 90.007 104.148 99.667 101.788C97.731 110.62 93.396 112.473 93.396 112.473C93.396 112.473 98.891 110.216 105.622 113.744C98.701 119.588 88.184 117.788 86.3225 116.547ZM90.598 114.104C90.598 114.104 97.849 111.996 104.372 113.673C98.013 110.764 90.598 114.104 90.598 114.104ZM87.6196 115.217C87.6196 115.217 92.204 106.84 97.894 103.273C91.404 105.882 87.6196 115.217 87.6196 115.217Z" fill="#005896"/>
<path fill-rule="evenodd" clip-rule="evenodd" d="M100.724 111.052C99.9001 109.027 98.9271 98.2526 106.752 92.1819C108.661 101.021 105.479 104.468 105.479 104.468C105.479 104.468 109.551 100.181 117.155 100.667C113.275 108.803 102.937 111.428 100.724 111.052ZM103.606 107.091C103.606 107.091 109.341 102.227 115.985 101.11C108.978 101.038 103.606 107.091 103.606 107.091ZM101.354 109.313C101.354 109.313 102.049 99.8154 105.754 94.2547C100.921 99.2662 101.354 109.313 101.354 109.313Z" fill="#005896"/>
<path fill-rule="evenodd" clip-rule="evenodd" d="M111.66 100.122C110.121 98.5559 105.089 88.9477 110.004 80.4026C115.159 87.87 113.536 92.2498 113.536 92.2498C113.536 92.2498 115.661 86.7597 122.886 84.3665C122.414 93.3477 113.852 99.6421 111.66 100.122ZM112.808 95.378C112.808 95.378 116.251 88.7319 121.973 85.2133C115.459 87.7667 112.808 95.378 112.808 95.378ZM111.575 98.2767C111.575 98.2767 108.578 89.2269 109.875 82.6945C107.323 89.1406 111.575 98.2767 111.575 98.2767Z" fill="#005896"/>
<path fill-rule="evenodd" clip-rule="evenodd" d="M118.004 67.4472C115.913 66.7423 107.012 60.4368 107.463 50.6192C115.489 54.9617 116.057 59.5919 116.057 59.5919C116.057 59.5919 115.426 53.7475 120.763 48.3757C124.472 56.5893 119.736 66.0367 118.004 67.4472ZM116.846 62.7051C116.846 62.7051 116.859 55.2403 120.339 49.5397C115.709 54.7355 116.846 62.7051 116.846 62.7051ZM117.08 65.8412C117.08 65.8412 110.25 59.1205 108.402 52.7195C109.091 59.6063 117.08 65.8412 117.08 65.8412Z" fill="#005896"/>
<path fill-rule="evenodd" clip-rule="evenodd" d="M116.419 52.4141C114.224 52.6665 103.442 50.7598 99.5701 41.7067C108.707 42.2134 111.237 46.1518 111.237 46.1518C111.237 46.1518 108.121 41.145 110.596 34.0273C117.523 39.864 117.368 50.4047 116.419 52.4141ZM113.307 48.6261C113.307 48.6261 110.064 41.8832 110.721 35.2586C108.807 41.9159 113.307 48.6261 113.307 48.6261ZM114.885 51.3568C114.885 51.3568 105.791 48.1959 101.333 43.2034C104.957 49.1264 114.885 51.3568 114.885 51.3568Z" fill="#005896"/>
<path fill-rule="evenodd" clip-rule="evenodd" d="M108.703 39.403C106.732 40.3903 95.9481 42.2866 89.1431 35.1167C97.8921 32.4691 101.647 35.2991 101.647 35.2991C101.647 35.2991 96.9671 31.6668 96.7961 24.1431C105.34 27.251 108.889 37.1928 108.703 39.403ZM104.456 36.9129C104.456 36.9129 99.0501 31.6949 97.3441 25.2553C97.8821 32.1559 104.456 36.9129 104.456 36.9129ZM106.893 38.9354C106.893 38.9354 97.2531 39.078 91.3201 35.9184C96.7971 40.236 106.893 38.9354 106.893 38.9354Z" fill="#005896"/>
<path fill-rule="evenodd" clip-rule="evenodd" d="M43.7935 32.6823C43.7935 32.6823 45.8433 24.3772 59.3153 23.0027C54.3369 33.4571 43.7935 32.6823 43.7935 32.6823ZM57.8514 24.1378C53.4596 29.1872 44.4079 32.4658 44.4079 32.4658C44.4079 32.4658 54.3051 30.1072 57.8514 24.1378Z" fill="#005896"/>
<path fill-rule="evenodd" clip-rule="evenodd" d="M55.2088 116.628C55.1472 114.447 51.689 104.183 42.0613 101.697C43.8801 110.554 48.1898 112.462 48.1898 112.462C48.1898 112.462 42.7254 110.134 35.948 113.576C42.7909 119.509 53.331 117.844 55.2088 116.628ZM50.9666 114.13C50.9666 114.13 43.7437 111.928 37.1994 113.52C43.596 110.695 50.9666 114.13 50.9666 114.13ZM53.9296 115.281C53.9296 115.281 49.4564 106.846 43.8139 103.205C50.2694 105.898 53.9296 115.281 53.9296 115.281Z" fill="#005896"/>
<path fill-rule="evenodd" clip-rule="evenodd" d="M40.8815 110.948C41.7323 108.934 42.8479 98.1728 35.1039 92.0013C33.0785 100.815 36.2143 104.303 36.2143 104.303C36.2143 104.303 32.1999 99.9638 24.5896 100.352C28.3616 108.538 38.6634 111.295 40.8815 110.948ZM38.0523 106.95C38.0523 106.95 32.3826 102.012 25.7536 100.809C32.7614 100.828 38.0523 106.95 38.0523 106.95ZM40.275 109.201C40.275 109.201 39.7049 99.695 36.0746 94.0873C40.8404 99.1608 40.275 109.201 40.275 109.201Z" fill="#005896"/>
<path fill-rule="evenodd" clip-rule="evenodd" d="M30.0909 99.8775C31.6508 98.3317 36.8093 88.7888 32.0077 80.1816C26.7539 87.5811 28.3191 91.9818 28.3191 91.9818C28.3191 91.9818 26.2672 86.4649 19.0747 83.9781C19.4276 92.9646 27.9053 99.3695 30.0909 99.8775ZM29.005 95.1192C29.005 95.1192 25.6508 88.4292 19.9765 84.8367C26.4552 87.4745 29.005 95.1192 29.005 95.1192ZM30.1995 98.0336C30.1995 98.0336 33.316 89.0229 32.1064 82.4748C34.5721 88.953 30.1995 98.0336 30.1995 98.0336Z" fill="#005896"/>
<path fill-rule="evenodd" clip-rule="evenodd" d="M23.5773 67.447C25.6682 66.7421 34.569 60.4367 34.1174 50.6191C26.0913 54.9616 25.5239 59.5918 25.5239 59.5918C25.5239 59.5918 26.1549 53.7473 20.8176 48.3756C17.1091 56.5892 21.8445 66.0366 23.5773 67.447ZM24.7346 62.705C24.7346 62.705 24.7221 55.2402 21.242 49.5395C25.8715 54.7354 24.7346 62.705 24.7346 62.705ZM24.5009 65.8411C24.5009 65.8411 31.3312 59.1204 33.1792 52.7194C32.4886 59.6062 24.5009 65.8411 24.5009 65.8411Z" fill="#005896"/>
<path fill-rule="evenodd" clip-rule="evenodd" d="M25.1621 52.4141C27.357 52.6665 38.1388 50.7598 42.0109 41.7067C32.8744 42.2134 30.3438 46.1518 30.3438 46.1518C30.3438 46.1518 33.4604 41.145 30.9847 34.0273C24.0577 39.864 24.2127 50.4047 25.1621 52.4141ZM28.2741 48.6261C28.2741 48.6261 31.5171 41.8832 30.8603 35.2586C32.7744 41.9159 28.2741 48.6261 28.2741 48.6261ZM26.6956 51.3568C26.6956 51.3568 35.7903 48.1959 40.2483 43.2034C36.6239 49.1264 26.6956 51.3568 26.6956 51.3568Z" fill="#005896"/>
<path fill-rule="evenodd" clip-rule="evenodd" d="M32.8788 39.403C34.8492 40.3903 45.633 42.2866 52.4388 35.1167C43.689 32.4691 39.9349 35.2991 39.9349 35.2991C39.9349 35.2991 44.614 31.6668 44.7855 24.1431C36.241 27.251 32.6927 37.1928 32.8788 39.403ZM37.1255 36.9129C37.1255 36.9129 42.5317 31.6949 44.2373 25.2553C43.6996 32.1559 37.1255 36.9129 37.1255 36.9129ZM34.6883 38.9354C34.6883 38.9354 44.3286 39.078 50.2611 35.9184C44.7842 40.236 34.6883 38.9354 34.6883 38.9354Z" fill="#005896"/>
<path fill-rule="evenodd" clip-rule="evenodd" d="M25.4343 84.2404C27.2141 82.947 33.7829 74.2901 30.3631 65.061C24.0306 71.5862 24.8993 76.1707 24.8993 76.1707C24.8993 76.1707 23.7214 70.4092 16.9957 66.871C15.9595 75.8058 23.3526 83.4099 25.4343 84.2404ZM25.0947 79.3741C25.0947 79.3741 22.8097 72.2584 17.7545 67.8551C23.7519 71.4358 25.0947 79.3741 25.0947 79.3741ZM25.8263 82.4343C25.8263 82.4343 30.2942 73.9965 30.1075 67.3431C31.5463 74.1161 25.8263 82.4343 25.8263 82.4343Z" fill="#005896"/>
<path fill-rule="evenodd" clip-rule="evenodd" d="M118.4 84.2501C120.379 83.2006 126.89 74.8471 124.876 66.0771C118.58 70.317 118.043 76.1706 118.043 76.1706C118.043 76.1706 118.402 71.5201 111.388 65.7142C109.006 75.2558 116.489 83.1555 118.4 84.2501ZM118.202 79.376C118.202 79.376 118.663 71.3403 124.23 67.1371C119.69 72.057 118.202 79.376 118.202 79.376ZM117.812 82.497C117.812 82.497 111.21 74.8426 111.893 67.9551C112.441 74.5889 117.812 82.497 117.812 82.497Z" fill="#005896"/>
<path fill-rule="evenodd" clip-rule="evenodd" d="M56.9769 94.787V97.1587H55.6513V94.8125L53.3359 91.2083H54.8859L56.3227 93.5969L57.786 91.2083H59.2923L56.9769 94.787Z" fill="#005896"/>
<path fill-rule="evenodd" clip-rule="evenodd" d="M60.8933 97.1587V91.2083H65.4294V92.3728H62.2016V93.5799H65.0414V94.7445H62.2016V95.9941H65.4725V97.1587H60.8933Z" fill="#005896"/>
<path fill-rule="evenodd" clip-rule="evenodd" d="M70.0865 92.7384L69.286 94.668H70.887L70.0865 92.7384ZM71.9106 97.1587L71.3597 95.8241H68.8119L68.261 97.1587H66.9097L69.4919 91.1658H70.7142L73.2964 97.1587H71.9106Z" fill="#005896"/>
<path fill-rule="evenodd" clip-rule="evenodd" d="M78.6759 93.2399C78.6759 92.9561 78.5846 92.7436 78.4005 92.6023C78.2171 92.4605 77.9615 92.3898 77.6344 92.3898H76.3175V94.0985H77.6603C77.9873 94.0985 78.2383 94.022 78.4137 93.8689C78.5879 93.7159 78.6759 93.5119 78.6759 93.2569V93.2399ZM78.6501 97.1587L77.359 95.2545H76.3175V97.1587H74.9919V91.2083H77.7463C78.4634 91.2083 79.0215 91.3809 79.4201 91.7268C79.8194 92.072 80.0187 92.554 80.0187 93.1719V93.1889C80.0187 93.6702 79.8995 94.0631 79.6611 94.3659C79.4234 94.6693 79.1116 94.8916 78.7276 95.0335L80.1994 97.1587H78.6501Z" fill="#005896"/>
<path fill-rule="evenodd" clip-rule="evenodd" d="M86.1822 96.185C86.0736 96.4145 85.9233 96.6074 85.7293 96.763C85.5353 96.9193 85.3036 97.0383 85.0355 97.12C84.766 97.2024 84.468 97.2436 84.1409 97.2436C83.6821 97.2436 83.2319 97.1651 82.7896 97.0095C82.348 96.8539 81.9467 96.6146 81.5852 96.2915L82.3678 95.365C82.6433 95.586 82.926 95.7619 83.216 95.892C83.5053 96.0221 83.8231 96.0875 84.1668 96.0875C84.4422 96.0875 84.6561 96.0378 84.8084 95.9384C84.96 95.8397 85.0368 95.7024 85.0368 95.5265V95.5095C85.0368 95.4245 85.0202 95.3493 84.9884 95.2839C84.9573 95.2192 84.8971 95.1583 84.8077 95.1014C84.7183 95.0446 84.5952 94.9877 84.4362 94.9314C84.278 94.8746 84.0728 94.815 83.8198 94.7529C83.5146 94.679 83.2385 94.5966 82.9909 94.5064C82.7432 94.4155 82.5333 94.3037 82.3612 94.1703C82.1884 94.0376 82.0546 93.8715 81.9593 93.6733C81.8646 93.4746 81.8169 93.2281 81.8169 92.9338V92.9168C81.8169 92.6448 81.8679 92.3996 81.9712 92.1812C82.0738 91.9634 82.2175 91.7744 82.4029 91.6162C82.5876 91.4573 82.8094 91.3357 83.0663 91.2507C83.3239 91.1657 83.6073 91.1232 83.9172 91.1232C84.3588 91.1232 84.7647 91.1879 85.1354 91.3187C85.5056 91.4488 85.8452 91.6358 86.1551 91.8797L85.4665 92.8658C85.197 92.684 84.9328 92.5415 84.6753 92.4362C84.4164 92.3316 84.1582 92.2793 83.8999 92.2793C83.6417 92.2793 83.4484 92.329 83.3193 92.4277C83.1902 92.5271 83.1253 92.6507 83.1253 92.7978V92.8148C83.1253 92.9109 83.1438 92.9946 83.1815 93.0652C83.2193 93.1365 83.2862 93.1999 83.3848 93.2568C83.4821 93.3131 83.6159 93.3673 83.7854 93.4183C83.9556 93.4693 84.1694 93.5288 84.429 93.5968C84.7335 93.676 85.0057 93.7656 85.244 93.8643C85.4824 93.9637 85.6843 94.0827 85.8485 94.2213C86.0121 94.3606 86.1359 94.5234 86.2193 94.7104C86.3027 94.8974 86.3444 95.1211 86.3444 95.382V95.399C86.3444 95.6939 86.2902 95.9554 86.1822 96.185Z" fill="#005896"/>
<path fill-rule="evenodd" clip-rule="evenodd" d="M54.549 49.0388C54.4464 49.1185 54.3345 49.1879 54.2126 49.2454C54.0908 49.3029 53.9577 49.3468 53.8127 49.3762C53.6684 49.4056 53.5055 49.4206 53.3254 49.4206C53.0533 49.4206 52.801 49.3716 52.568 49.2742C52.3349 49.1761 52.1336 49.0427 51.9641 48.8733C51.7946 48.7046 51.6622 48.5045 51.5668 48.275C51.4715 48.0449 51.4238 47.799 51.4238 47.5374V47.527C51.4238 47.2654 51.4715 47.0202 51.5668 46.792C51.6622 46.5631 51.7946 46.363 51.9641 46.1898C52.1336 46.0178 52.3369 45.8818 52.5732 45.7824C52.8096 45.683 53.0712 45.6333 53.3572 45.6333C53.5307 45.6333 53.6882 45.647 53.8313 45.6752C53.9743 45.7026 54.104 45.7412 54.2206 45.7902C54.3371 45.8386 54.445 45.8981 54.5437 45.9681C54.6423 46.0381 54.7344 46.1146 54.8191 46.1983L54.3 46.7887C54.1557 46.6599 54.008 46.5592 53.8577 46.486C53.7074 46.4127 53.5393 46.3761 53.3519 46.3761C53.1963 46.3761 53.0526 46.4055 52.9202 46.4651C52.7878 46.5246 52.6739 46.6063 52.5785 46.7109C52.4832 46.8155 52.409 46.9365 52.3561 47.0745C52.3031 47.2118 52.2766 47.3596 52.2766 47.5165V47.527C52.2766 47.6839 52.3031 47.8323 52.3561 47.9716C52.409 48.1109 52.4825 48.2325 52.5759 48.3378C52.6693 48.4424 52.7825 48.5248 52.9149 48.5863C53.0473 48.6471 53.193 48.6778 53.3519 48.6778C53.5638 48.6778 53.7432 48.6392 53.8895 48.5627C54.0359 48.4862 54.1822 48.3816 54.3265 48.2489L54.8456 48.7668C54.7503 48.8681 54.6516 48.9583 54.549 49.0388Z" fill="#005896"/>
<path fill-rule="evenodd" clip-rule="evenodd" d="M55.4971 49.3578V45.696H58.2885V46.4127H56.3022V47.1555H58.0502V47.8722H56.3022V48.6412H58.315V49.3578H55.4971Z" fill="#005896"/>
<path fill-rule="evenodd" clip-rule="evenodd" d="M59.0459 49.3578V45.696H59.8616V48.6307H61.7102V49.3578H59.0459Z" fill="#005896"/>
<path fill-rule="evenodd" clip-rule="evenodd" d="M62.3245 49.3578V45.696H65.1166V46.4127H63.1296V47.1555H64.8776V47.8722H63.1296V48.6412H65.1431V49.3578H62.3245Z" fill="#005896"/>
<path fill-rule="evenodd" clip-rule="evenodd" d="M68.2148 48.2436C68.2148 48.1213 68.1671 48.0246 68.0724 47.9533C67.9764 47.8814 67.8235 47.846 67.6109 47.846H66.6681V48.6516H67.6374C67.8175 48.6516 67.9592 48.6189 68.0611 48.5549C68.1638 48.4901 68.2148 48.3901 68.2148 48.2541V48.2436ZM68.0082 46.7789C68.0082 46.6566 67.9625 46.5631 67.8705 46.499C67.7784 46.4343 67.646 46.4022 67.4732 46.4022H66.6681V47.1765H67.4202C67.6003 47.1765 67.7433 47.1457 67.8493 47.0849C67.9552 47.0234 68.0082 46.9247 68.0082 46.7887V46.7789ZM68.9226 48.7929C68.857 48.9184 68.7636 49.0224 68.6418 49.1067C68.52 49.1904 68.3743 49.2532 68.2028 49.2951C68.032 49.3363 67.8427 49.3578 67.6341 49.3578H65.8735V45.696H67.5924C67.9724 45.696 68.271 45.781 68.4882 45.9524C68.7054 46.123 68.8133 46.3532 68.8133 46.6429V46.6527C68.8133 46.758 68.8001 46.8502 68.7736 46.9306C68.7478 47.0104 68.712 47.083 68.669 47.1477C68.6253 47.2118 68.5736 47.2687 68.516 47.3177C68.4584 47.3661 68.3962 47.4079 68.3293 47.4426C68.5432 47.5237 68.712 47.6322 68.8352 47.7695C68.9583 47.9075 69.0199 48.0984 69.0199 48.343V48.3535C69.0199 48.5209 68.9868 48.6673 68.9226 48.7929Z" fill="#005896"/>
<path fill-rule="evenodd" clip-rule="evenodd" d="M71.9648 46.9463C71.9648 46.7717 71.9085 46.6409 71.7953 46.554C71.6828 46.4663 71.5252 46.4232 71.3239 46.4232H70.5135V47.4746H71.3398C71.5411 47.4746 71.6953 47.4276 71.8033 47.3334C71.9105 47.2386 71.9648 47.1137 71.9648 46.9567V46.9463ZM71.9489 49.3578L71.1544 48.1861H70.5135V49.3578H69.6978V45.696H71.3928C71.8337 45.696 72.178 45.8026 72.423 46.0151C72.6686 46.2277 72.7918 46.5245 72.7918 46.9044V46.9149C72.7918 47.2111 72.7176 47.4531 72.5713 47.6394C72.425 47.8258 72.2336 47.9624 71.9966 48.0501L72.9024 49.3578H71.9489Z" fill="#005896"/>
<path fill-rule="evenodd" clip-rule="evenodd" d="M75.1643 46.6377L74.6717 47.8245H75.6575L75.1643 46.6377ZM76.2872 49.3579L75.9482 48.5366H74.3803L74.0413 49.3579H73.2097L74.7988 45.6699H75.5509L77.14 49.3579H76.2872Z" fill="#005896"/>
<path fill-rule="evenodd" clip-rule="evenodd" d="M78.9198 46.4389V49.3578H78.1041V46.4389H76.9758V45.696H80.048V46.4389H78.9198Z" fill="#005896"/>
<path fill-rule="evenodd" clip-rule="evenodd" d="M80.71 49.3578H81.5257V45.696H80.71V49.3578Z" fill="#005896"/>
<path fill-rule="evenodd" clip-rule="evenodd" d="M85.0534 49.3578L83.2578 47.03V49.3578H82.4526V45.696H83.2048L84.9422 47.9507V45.696H85.7473V49.3578H85.0534Z" fill="#005896"/>
<path fill-rule="evenodd" clip-rule="evenodd" d="M89.325 49.2506C89.062 49.3638 88.761 49.4206 88.422 49.4206C88.132 49.4206 87.8686 49.3736 87.6303 49.2794C87.3919 49.1852 87.1873 49.0545 87.0158 48.8864C86.8443 48.7197 86.7113 48.5209 86.6159 48.2907C86.5206 48.0606 86.4729 47.8095 86.4729 47.5374V47.527C86.4729 47.2654 86.5212 47.0202 86.6186 46.792C86.7159 46.5631 86.851 46.363 87.0238 46.1898C87.1966 46.0178 87.4018 45.8818 87.6382 45.7824C87.8746 45.683 88.134 45.6333 88.417 45.6333C88.583 45.6333 88.734 45.6444 88.87 45.6673C89.005 45.6895 89.132 45.7222 89.248 45.7641C89.365 45.8059 89.474 45.8582 89.577 45.921C89.679 45.9838 89.778 46.0551 89.873 46.1348L89.36 46.7475C89.289 46.688 89.219 46.6357 89.148 46.5906C89.077 46.5448 89.004 46.5069 88.928 46.4749C88.852 46.4441 88.77 46.4199 88.682 46.4023C88.594 46.3846 88.496 46.3761 88.39 46.3761C88.242 46.3761 88.103 46.4069 87.9746 46.4677C87.8455 46.5291 87.7329 46.6109 87.6356 46.7142C87.5382 46.8175 87.4628 46.9378 87.4078 47.0758C87.3535 47.2138 87.3257 47.3615 87.3257 47.5191V47.5296C87.3257 47.697 87.3535 47.852 87.4078 47.9932C87.4628 48.1351 87.5402 48.2587 87.6409 48.3633C87.7415 48.4679 87.8594 48.549 87.9958 48.6066C88.131 48.6647 88.282 48.6935 88.449 48.6935C88.753 48.6935 89.009 48.6196 89.217 48.4718V47.9455H88.396V47.2497H90.006V48.84C89.815 49.0002 89.589 49.1369 89.325 49.2506Z" fill="#005896"/>
<path fill-rule="evenodd" clip-rule="evenodd" d="M66.186 53.8043C66.186 53.6474 66.1588 53.4989 66.1039 53.3597C66.0496 53.2197 65.9721 53.0981 65.8708 52.9935C65.7702 52.8889 65.651 52.8058 65.5133 52.745C65.3756 52.6842 65.2259 52.6535 65.0637 52.6535C64.8969 52.6535 64.7459 52.6829 64.6102 52.7424C64.4738 52.8019 64.3579 52.8836 64.2606 52.9883C64.1632 53.0929 64.0878 53.2139 64.0328 53.3518C63.9778 53.4898 63.9507 53.6369 63.9507 53.7939V53.8043C63.9507 53.9613 63.9778 54.1097 64.0328 54.249C64.0878 54.3882 64.1652 54.5105 64.2659 54.6151C64.3665 54.7198 64.485 54.8022 64.6208 54.8636C64.7565 54.9244 64.9074 54.9552 65.0736 54.9552C65.2359 54.9552 65.3862 54.9251 65.5239 54.8662C65.6616 54.8067 65.7794 54.725 65.8761 54.6204C65.9734 54.5158 66.0496 54.3941 66.1039 54.2568C66.1588 54.1188 66.186 53.9717 66.186 53.8148V53.8043ZM66.8905 54.5393C66.7918 54.7675 66.6548 54.9682 66.48 55.1409C66.3058 55.3135 66.0966 55.4495 65.8549 55.5489C65.6133 55.6483 65.3491 55.698 65.0637 55.698C64.777 55.698 64.5142 55.6483 64.2738 55.5489C64.0335 55.4495 63.8262 55.3155 63.6514 55.1461C63.4766 54.9767 63.3409 54.778 63.2436 54.5498C63.1462 54.3215 63.0979 54.0763 63.0979 53.8148V53.8043C63.0979 53.5428 63.1476 53.2976 63.2462 53.0693C63.3449 52.8405 63.4819 52.6404 63.6567 52.4678C63.8315 52.2951 64.0401 52.1591 64.2818 52.0597C64.5234 51.9603 64.7876 51.9106 65.0736 51.9106C65.3597 51.9106 65.6225 51.9603 65.8635 52.0597C66.1032 52.1591 66.3105 52.2932 66.4853 52.4625C66.6607 52.6319 66.7964 52.8307 66.8931 53.0589C66.9904 53.2871 67.0388 53.5323 67.0388 53.7939V53.8043C67.0388 54.0659 66.9898 54.3104 66.8905 54.5393Z" fill="#005896"/>
<path fill-rule="evenodd" clip-rule="evenodd" d="M69.6662 55.6613H68.9458L67.4468 51.9734H68.3472L69.3166 54.5523L70.2859 51.9734H71.1652L69.6662 55.6613Z" fill="#005896"/>
<path fill-rule="evenodd" clip-rule="evenodd" d="M71.7371 55.6352V51.9734H74.5292V52.6901H72.5428V53.4329H74.2902V54.1495H72.5428V54.9185H74.5557V55.6352H71.7371Z" fill="#005896"/>
<path fill-rule="evenodd" clip-rule="evenodd" d="M77.5532 53.2236C77.5532 53.049 77.4969 52.9183 77.3837 52.8313C77.2705 52.7437 77.1136 52.7005 76.9123 52.7005H76.1018V53.752H76.9282C77.1294 53.752 77.2844 53.7049 77.3916 53.6107C77.4996 53.5166 77.5532 53.391 77.5532 53.2341V53.2236ZM77.5366 55.6352L76.7428 54.4634H76.1018V55.6352H75.2861V51.9734H76.9811C77.4228 51.9734 77.7657 52.08 78.0114 52.2925C78.2564 52.505 78.3795 52.8019 78.3795 53.1818V53.1922C78.3795 53.4885 78.3067 53.7304 78.1597 53.9168C78.0127 54.1031 77.8214 54.2398 77.585 54.3274L78.4907 55.6352H77.5366Z" fill="#005896"/>
<path fill-rule="evenodd" clip-rule="evenodd" d="M84.0797 111.857C84.0797 111.612 74.5473 105.03 68.301 114.077C62.056 123.124 54.5364 121.942 54.5364 121.942C54.5364 121.942 64.6256 129.841 71.1951 119.309C77.7645 108.777 84.0797 111.857 84.0797 111.857Z" fill="#005896"/>
<path fill-rule="evenodd" clip-rule="evenodd" d="M58.8362 122.49C58.8362 122.49 63.1379 122.558 67.2827 117.089C71.4282 111.62 73.8522 110.068 77.1369 110.203C73.4615 110.405 70.3748 114.449 67.9865 117.464C63.6855 122.896 58.8362 122.49 58.8362 122.49Z" fill="#005896"/>
<path fill-rule="evenodd" clip-rule="evenodd" d="M56.8821 111.857C56.8821 111.612 66.4138 105.03 72.6595 114.077C78.9052 123.124 86.4241 121.942 86.4241 121.942C86.4241 121.942 76.3349 129.841 69.7654 119.309C63.196 108.777 56.8821 111.857 56.8821 111.857Z" fill="#005896"/>
<path fill-rule="evenodd" clip-rule="evenodd" d="M78.9661 122.585C78.9661 122.585 75.2258 122.643 71.6213 117.888C68.0167 113.133 65.9086 111.782 63.0522 111.899C66.2483 112.076 68.9324 115.592 71.0088 118.214C74.7497 122.937 78.9661 122.585 78.9661 122.585Z" fill="#005896"/>
<path d="M73.5149 127.283C103.364 125.942 127.235 101.95 127.915 72.301M127.87 68.3972C126.513 38.9184 102.219 15.3443 72.1973 14.6721M68.2445 14.7166C38.3953 16.0571 14.5249 40.0497 13.8442 69.6985M13.8893 73.6022C15.2466 103.081 39.5407 126.655 69.5621 127.327" stroke="#005896" stroke-width="2" stroke-linecap="round" stroke-linejoin="round"/>
</g>
<defs>
<filter id="filter0_d_3947_53" x="-12" y="0" width="165.759" height="164" filterUnits="userSpaceOnUse" color-interpolation-filters="sRGB">
<feFlood flood-opacity="0" result="BackgroundImageFix"/>
<feColorMatrix in="SourceAlpha" type="matrix" values="0 0 0 0 0 0 0 0 0 0 0 0 0 0 0 0 0 0 127 0" result="hardAlpha"/>
<feOffset dy="11"/>
<feGaussianBlur stdDeviation="6"/>
<feColorMatrix type="matrix" values="0 0 0 0 0 0 0 0 0 0 0 0 0 0 0 0 0 0 0.1 0"/>
<feBlend mode="normal" in2="BackgroundImageFix" result="effect1_dropShadow_3947_53"/>
<feBlend mode="normal" in="SourceGraphic" in2="effect1_dropShadow_3947_53" result="shape"/>
</filter>
<clipPath id="clip0_3947_53">
<rect width="142" height="141" rx="70.5" fill="white"/>
</clipPath>
</defs>
</svg>
