<svg width="28" height="28" viewBox="0 0 28 28" fill="none" xmlns="http://www.w3.org/2000/svg">
<path d="M21.9101 27.1249C20.7664 27.1249 19.1597 26.7113 16.7539 25.3671C13.8283 23.7265 11.5654 22.2119 8.65565 19.3097C5.85018 16.506 4.48494 14.6908 2.5742 11.2138C0.415608 7.28803 0.783577 5.23022 1.19491 4.35073C1.68475 3.29955 2.4078 2.67084 3.34237 2.04682C3.8732 1.69903 4.43495 1.40089 5.02049 1.15619C5.07909 1.131 5.13358 1.10698 5.18221 1.0853C5.47225 0.954632 5.9117 0.757171 6.46834 0.968109C6.83983 1.10756 7.17147 1.39291 7.69061 1.90561C8.75526 2.95561 10.2101 5.29409 10.7469 6.44252C11.1072 7.21655 11.3457 7.72748 11.3463 8.30053C11.3463 8.97143 11.0088 9.48881 10.5992 10.0472C10.5224 10.1521 10.4463 10.2523 10.3724 10.3496C9.92655 10.9355 9.82869 11.1048 9.89315 11.4072C10.0238 12.0148 10.9982 13.8236 12.5996 15.4214C14.201 17.0193 15.9576 17.9322 16.5676 18.0622C16.8828 18.1296 17.0556 18.0277 17.6603 17.566C17.7471 17.4997 17.8361 17.4312 17.9293 17.3626C18.5539 16.898 19.0473 16.5693 19.7023 16.5693H19.7058C20.276 16.5693 20.764 16.8165 21.5726 17.2244C22.6273 17.7564 25.0361 19.1925 26.0926 20.2583C26.6064 20.7763 26.893 21.1068 27.033 21.4777C27.2439 22.0361 27.0453 22.4738 26.9158 22.7667C26.8941 22.8154 26.8701 22.8687 26.8449 22.9279C26.5983 23.5124 26.2984 24.0729 25.949 24.6025C25.3262 25.5341 24.6951 26.2554 23.6416 26.7458C23.1006 27.0017 22.5086 27.1314 21.9101 27.1249Z" fill="#005896"/>
</svg>
