<svg width="166" height="103" viewBox="0 0 166 103" fill="none" xmlns="http://www.w3.org/2000/svg">
<mask id="mask0_1_1117" style="mask-type:luminance" maskUnits="userSpaceOnUse" x="14" y="22" width="31" height="32">
<path d="M14.3755 22.3896H44.863V53.7075H14.3755V22.3896Z" fill="#0D485D"/>
</mask>
<g mask="url(#mask0_1_1117)">
<path fill-rule="evenodd" clip-rule="evenodd" d="M30.2305 36.6393V40.9198H40.4613C40.1478 43.3207 39.3473 45.0777 38.1297 46.3133C36.6334 47.8096 34.3017 49.4449 30.2305 49.4449C23.9324 49.4449 19.0084 44.3644 19.0084 38.0663C19.0084 31.7676 23.9324 26.6876 30.2305 26.6876C33.6234 26.6876 36.1115 28.0269 37.9383 29.7495L40.9483 26.7394C38.4083 24.2687 34.998 22.3896 30.2305 22.3896C21.6007 22.3896 14.3456 29.419 14.3456 38.0488C14.3456 46.6786 21.6007 53.7075 30.2305 53.7075C34.8934 53.7075 38.4083 52.1763 41.1571 49.3233C43.9757 46.5047 44.863 42.5202 44.863 39.3188C44.863 38.3269 44.7937 37.4049 44.6367 36.6393H30.2305Z" fill="#0D485D"/>
</g>
<path fill-rule="evenodd" clip-rule="evenodd" d="M57.6511 49.3925C54.5888 49.3925 51.9441 46.87 51.9441 43.2683C51.9441 39.6318 54.5888 37.1441 57.6511 37.1441C60.713 37.1441 63.3576 39.6318 63.3576 43.2683C63.3576 46.87 60.713 49.3925 57.6511 49.3925ZM57.6511 33.1597C52.0662 33.1597 47.5076 37.4048 47.5076 43.2683C47.5076 49.0795 52.0662 53.377 57.6511 53.377C63.236 53.377 67.7947 49.097 67.7947 43.2683C67.7947 37.4048 63.236 33.1597 57.6511 33.1597Z" fill="#0D485D"/>
<path fill-rule="evenodd" clip-rule="evenodd" d="M102.279 49.3925C99.2168 49.3925 96.8851 46.7828 96.8851 43.2683C96.8851 39.7016 99.2168 37.1441 102.279 37.1441C105.306 37.1441 107.673 39.7539 107.673 43.3032C107.69 46.8351 105.306 49.3925 102.279 49.3925ZM107.377 35.4215H107.22C106.229 34.2383 104.315 33.1597 101.896 33.1597C96.8507 33.1597 92.4486 37.5613 92.4486 43.2683C92.4486 48.9405 96.8507 53.377 101.896 53.377C104.315 53.377 106.229 52.2984 107.22 51.0802H107.377V52.4898C107.377 56.3521 105.306 58.4226 101.983 58.4226C99.2691 58.4226 97.5814 56.4742 96.8851 54.8209L93.0228 56.4219C94.1363 59.101 97.0765 62.3896 101.983 62.3896C107.185 62.3896 111.587 59.3272 111.587 51.8633V33.6815H107.377V35.4215Z" fill="#0D485D"/>
<path fill-rule="evenodd" clip-rule="evenodd" d="M80.2694 49.3925C77.2071 49.3925 74.5629 46.87 74.5629 43.2683C74.5629 39.6318 77.2071 37.1441 80.2694 37.1441C83.3318 37.1441 85.9764 39.6318 85.9764 43.2683C85.9764 46.87 83.3318 49.3925 80.2694 49.3925ZM80.2694 33.1597C74.6845 33.1597 70.1259 37.4048 70.1259 43.2683C70.1259 49.0795 74.6845 53.377 80.2694 53.377C85.8543 53.377 90.413 49.097 90.413 43.2683C90.413 37.4048 85.8543 33.1597 80.2694 33.1597Z" fill="#0D485D"/>
<path fill-rule="evenodd" clip-rule="evenodd" d="M115.067 53.3771H119.434V22.8074H115.067V53.3771Z" fill="#0D485D"/>
<path fill-rule="evenodd" clip-rule="evenodd" d="M132.605 36.9527C134.397 36.9527 135.928 37.8748 136.432 39.1797L127.298 42.9553C127.298 38.7097 130.308 36.9527 132.605 36.9527ZM132.918 49.3925C130.656 49.3925 129.056 48.3663 128.011 46.3307L141.53 40.7453L141.078 39.5974C140.243 37.3355 137.668 33.1597 132.431 33.1597C127.228 33.1597 122.897 37.2483 122.897 43.2683C122.897 48.9405 127.177 53.377 132.918 53.377C137.546 53.377 140.226 50.5409 141.339 48.9056L137.894 46.6088C136.746 48.279 135.18 49.3925 132.918 49.3925Z" fill="#0D485D"/>
<path fill-rule="evenodd" clip-rule="evenodd" d="M79.2937 78.2836L74.1505 81.7961L76.041 76.0149L70.9719 72.4046L77.2834 72.3442L79.2937 66.6003L81.3039 72.3442L87.6154 72.4046L82.5463 76.0149L84.4368 81.7961L79.2937 78.2836Z" fill="#0D485D"/>
<path fill-rule="evenodd" clip-rule="evenodd" d="M101.694 78.2836L96.5506 81.7961L98.4411 76.0149L93.3719 72.4046L99.6835 72.3442L101.694 66.6003L103.704 72.3442L110.015 72.4046L104.946 76.0149L106.837 81.7961L101.694 78.2836Z" fill="#0D485D"/>
<path fill-rule="evenodd" clip-rule="evenodd" d="M56.8936 78.2836L51.7505 81.7961L53.641 76.0149L48.5719 72.4046L54.8834 72.3442L56.8936 66.6003L58.9039 72.3442L65.2154 72.4046L60.1463 76.0149L62.0368 81.7961L56.8936 78.2836Z" fill="#0D485D"/>
<path fill-rule="evenodd" clip-rule="evenodd" d="M124.094 78.2836L118.95 81.7961L120.841 76.0149L115.772 72.4046L122.083 72.3442L124.094 66.6003L126.104 72.3442L132.415 72.4046L127.346 76.0149L129.237 81.7961L124.094 78.2836Z" fill="#0D485D"/>
<path fill-rule="evenodd" clip-rule="evenodd" d="M146.494 78.2836L141.35 81.7961L143.241 76.0149L138.172 72.4046L144.483 72.3442L146.494 66.6003L148.504 72.3442L154.815 72.4046L149.746 76.0149L151.637 81.7961L146.494 78.2836Z" fill="#0D485D"/>
<path d="M16.5736 81.5003V78.2033H18.6736V76.0823H16.5736V66.6953H14.3686L6.19958 76.3553L6.68258 78.2033H14.0956V81.5003H16.5736ZM14.0956 76.0823H9.26558L14.0956 70.2653V76.0823ZM23.9656 81.5003V78.6233H21.1726V81.5003H23.9656ZM30.0976 81.5003L36.7336 68.7533V66.8003H26.4016V69.0683H33.7936L27.1996 81.5003H30.0976Z" fill="#252B33"/>
</svg>
