<svg width="166" height="164" viewBox="0 0 166 164" fill="none" xmlns="http://www.w3.org/2000/svg">
<g filter="url(#filter0_d_70_2)">
<path d="M82.8791 141C122.025 141 153.759 109.66 153.759 71C153.759 32.3401 122.025 1 82.8791 1C43.7333 1 11.9994 32.3401 11.9994 71C11.9994 109.66 43.7333 141 82.8791 141Z" fill="black"/>
</g>
<path d="M82.8791 141C122.025 141 153.759 109.66 153.759 71C153.759 32.3401 122.025 1 82.8791 1C43.7333 1 11.9994 32.3401 11.9994 71C11.9994 109.66 43.7333 141 82.8791 141Z" fill="white"/>
<path fill-rule="evenodd" clip-rule="evenodd" d="M61.4761 59.2335H64.6999V85.3297H60.1267V63.8605L55.4046 65.1558L54.4299 61.4548L61.4761 59.2335Z" fill="#005896"/>
<path fill-rule="evenodd" clip-rule="evenodd" d="M81.2658 63.916C80.4163 63.2131 79.2795 62.8613 77.8559 62.8613C76.4311 62.8613 75.2936 63.2131 74.4447 63.916C73.5946 64.6196 73.1702 65.4775 73.1702 66.4884C73.1702 67.6491 73.6138 68.5861 74.501 69.3021C75.3876 70.0182 76.5059 70.3752 77.8559 70.3752C79.2047 70.3752 80.323 70.0182 81.2102 69.3021C82.0961 68.5861 82.541 67.6609 82.541 66.5257C82.541 65.4893 82.1153 64.6196 81.2658 63.916ZM82.9343 76.3354C82.647 75.8417 82.259 75.4226 81.7717 75.0767C81.2857 74.7314 80.7037 74.4659 80.0296 74.2802C79.355 74.0958 78.6293 74.003 77.8559 74.003C77.0806 74.003 76.3563 74.0958 75.6816 74.2802C75.0069 74.4659 74.4255 74.7314 73.9382 75.0767C73.4516 75.4226 73.0636 75.8417 72.7769 76.3354C72.4889 76.8291 72.3459 77.3712 72.3459 77.9636C72.3459 79.0739 72.8325 80.0057 73.8078 80.7583C74.7818 81.5116 76.1311 81.8876 77.8559 81.8876C79.5794 81.8876 80.9288 81.5116 81.9034 80.7583C82.8774 80.0057 83.3647 79.0739 83.3647 77.9636C83.3647 77.3712 83.221 76.8291 82.9343 76.3354ZM87.1136 81.2952C86.613 82.2335 85.9138 83.0293 85.0147 83.6825C84.1149 84.3371 83.0522 84.8367 81.8286 85.1819C80.6037 85.5272 79.2795 85.6998 77.8559 85.6998C76.4311 85.6998 75.1062 85.5206 73.882 85.1636C72.6577 84.8059 71.5957 84.3064 70.6965 83.6642C69.7974 83.0228 69.0969 82.2387 68.5977 81.3135C68.0978 80.3882 67.8481 79.3701 67.8481 78.2598C67.8481 76.6558 68.26 75.348 69.085 74.3358C69.9093 73.3249 71.0713 72.5101 72.5703 71.8935C71.4705 71.3259 70.5588 70.5792 69.8345 69.6539C69.1095 68.728 68.7473 67.5379 68.7473 66.0817C68.7473 65.095 68.9784 64.1697 69.4405 63.3053C69.9027 62.4415 70.5337 61.6948 71.3335 61.0657C72.1333 60.4367 73.0887 59.943 74.2011 59.5853C75.3128 59.2276 76.5304 59.0485 77.8559 59.0485C79.1543 59.0485 80.3673 59.2276 81.4909 59.5853C82.6158 59.943 83.5772 60.4367 84.3777 61.0657C85.1769 61.6948 85.8079 62.4415 86.2694 63.3053C86.7322 64.1697 86.9639 65.095 86.9639 66.0817C86.9639 67.5379 86.6004 68.728 85.8761 69.6539C85.1517 70.5792 84.2393 71.3259 83.1396 71.8935C84.5651 72.535 85.7079 73.3497 86.5693 74.3358C87.432 75.3238 87.8624 76.5943 87.8624 78.1487C87.8624 79.3087 87.6128 80.3575 87.1136 81.2952Z" fill="#005896"/>
<path fill-rule="evenodd" clip-rule="evenodd" d="M107.184 68.7836C106.871 67.6491 106.421 66.6618 105.835 65.8222C105.247 64.9839 104.542 64.3176 103.717 63.8239C102.892 63.3302 101.967 63.083 100.943 63.083C99.918 63.083 98.9997 63.3243 98.1886 63.8049C97.3755 64.2862 96.6823 64.9407 96.1076 65.7666C95.5329 66.5944 95.0892 67.5753 94.7781 68.7098C94.4649 69.8449 94.3093 71.0546 94.3093 72.3376C94.3093 73.6453 94.4649 74.8609 94.7781 75.983C95.0892 77.1064 95.5395 78.0931 96.1268 78.9445C96.7134 79.7965 97.4199 80.4628 98.2449 80.9434C99.0692 81.4247 99.9928 81.6653 101.018 81.6653C102.042 81.6653 102.961 81.4247 103.773 80.9434C104.585 80.4628 105.278 79.8024 105.853 78.9634C106.428 78.1245 106.871 77.1437 107.184 76.0203C107.496 74.8975 107.652 73.6944 107.652 72.4114C107.652 71.1285 107.496 69.9195 107.184 68.7836ZM111.588 77.5752C111.038 79.2165 110.263 80.6413 109.264 81.8504C108.265 83.0601 107.058 84.0161 105.647 84.719C104.235 85.4226 102.668 85.7744 100.943 85.7744C99.2195 85.7744 97.6569 85.4285 96.2579 84.738C94.8588 84.0468 93.6591 83.0967 92.6593 81.8876C91.6602 80.6786 90.8915 79.2597 90.3545 77.6308C89.8169 76.002 89.5487 74.262 89.5487 72.4114C89.5487 70.5603 89.8235 68.815 90.373 67.1738C90.9226 65.5331 91.6973 64.1077 92.697 62.898C93.6968 61.6896 94.9025 60.7329 96.3141 60.0293C97.7258 59.3264 99.2943 58.9746 101.018 58.9746C102.743 58.9746 104.303 59.3205 105.703 60.011C107.103 60.7022 108.302 61.6523 109.301 62.8613C110.301 64.0704 111.069 65.4893 111.607 67.1182C112.144 68.747 112.412 70.4864 112.412 72.3376C112.412 74.1881 112.137 75.934 111.588 77.5752Z" fill="#005896"/>
<path fill-rule="evenodd" clip-rule="evenodd" d="M82.8791 130.308C115.993 130.308 142.933 103.703 142.933 70.9997C142.933 38.2972 115.993 11.6917 82.8791 11.6917C49.7657 11.6917 22.8251 38.2972 22.8251 70.9997C22.8251 103.703 49.7657 130.308 82.8791 130.308ZM82.8791 129.436C115.506 129.436 142.049 103.222 142.049 70.9997C142.049 38.7778 115.506 12.5639 82.8791 12.5639C50.2523 12.5639 23.7083 38.7778 23.7083 70.9997C23.7083 103.222 50.2523 129.436 82.8791 129.436Z" stroke="#005896" stroke-width="0.666"/>
<path fill-rule="evenodd" clip-rule="evenodd" d="M109.348 33.1498C109.348 33.1498 108.188 24.6786 94.9362 21.9211C98.781 32.832 109.348 33.1498 109.348 33.1498ZM96.2716 23.2008C100.105 28.6758 108.76 32.8712 108.76 32.8712C108.76 32.8712 99.1664 29.5037 96.2716 23.2008Z" fill="#005896"/>
<path fill-rule="evenodd" clip-rule="evenodd" d="M98.3221 116.547C98.4129 114.367 102.007 104.148 111.666 101.788C109.73 110.62 105.395 112.473 105.395 112.473C105.395 112.473 110.891 110.216 117.622 113.744C110.701 119.588 100.183 117.788 98.3221 116.547ZM102.597 114.104C102.597 114.104 109.848 111.996 116.371 113.673C110.012 110.764 102.597 114.104 102.597 114.104ZM99.6192 115.217C99.6192 115.217 104.204 106.84 109.894 103.273C103.403 105.882 99.6192 115.217 99.6192 115.217Z" fill="#005896"/>
<path fill-rule="evenodd" clip-rule="evenodd" d="M112.724 111.052C111.899 109.027 110.927 98.2526 118.752 92.1819C120.66 101.021 117.478 104.468 117.478 104.468C117.478 104.468 121.55 100.181 129.154 100.667C125.275 108.803 114.936 111.428 112.724 111.052ZM115.606 107.091C115.606 107.091 121.34 102.227 127.985 101.11C120.977 101.038 115.606 107.091 115.606 107.091ZM113.353 109.313C113.353 109.313 114.049 99.8154 117.754 94.2547C112.921 99.2662 113.353 109.313 113.353 109.313Z" fill="#005896"/>
<path fill-rule="evenodd" clip-rule="evenodd" d="M123.659 100.122C122.12 98.5559 117.088 88.9477 122.004 80.4026C127.158 87.87 125.536 92.2498 125.536 92.2498C125.536 92.2498 127.66 86.7597 134.885 84.3665C134.413 93.3477 125.851 99.6421 123.659 100.122ZM124.808 95.378C124.808 95.378 128.25 88.7319 133.972 85.2133C127.458 87.7667 124.808 95.378 124.808 95.378ZM123.575 98.2767C123.575 98.2767 120.578 89.2269 121.874 82.6945C119.323 89.1406 123.575 98.2767 123.575 98.2767Z" fill="#005896"/>
<path fill-rule="evenodd" clip-rule="evenodd" d="M130.003 67.4472C127.912 66.7423 119.011 60.4368 119.463 50.6192C127.489 54.9617 128.057 59.5919 128.057 59.5919C128.057 59.5919 127.426 53.7475 132.763 48.3757C136.471 56.5893 131.736 66.0367 130.003 67.4472ZM128.846 62.7051C128.846 62.7051 128.858 55.2403 132.338 49.5397C127.709 54.7355 128.846 62.7051 128.846 62.7051ZM129.079 65.8412C129.079 65.8412 122.249 59.1205 120.401 52.7195C121.091 59.6063 129.079 65.8412 129.079 65.8412Z" fill="#005896"/>
<path fill-rule="evenodd" clip-rule="evenodd" d="M128.418 52.4141C126.223 52.6665 115.442 50.7598 111.57 41.7067C120.706 42.2134 123.237 46.1518 123.237 46.1518C123.237 46.1518 120.12 41.145 122.596 34.0273C129.523 39.864 129.368 50.4047 128.418 52.4141ZM125.306 48.6261C125.306 48.6261 122.063 41.8832 122.72 35.2586C120.806 41.9159 125.306 48.6261 125.306 48.6261ZM126.885 51.3568C126.885 51.3568 117.79 48.1959 113.332 43.2034C116.957 49.1264 126.885 51.3568 126.885 51.3568Z" fill="#005896"/>
<path fill-rule="evenodd" clip-rule="evenodd" d="M120.702 39.403C118.732 40.3903 107.948 42.2866 101.142 35.1167C109.892 32.4691 113.646 35.2991 113.646 35.2991C113.646 35.2991 108.967 31.6668 108.795 24.1431C117.34 27.251 120.888 37.1928 120.702 39.403ZM116.455 36.9129C116.455 36.9129 111.049 31.6949 109.344 25.2553C109.881 32.1559 116.455 36.9129 116.455 36.9129ZM118.893 38.9354C118.893 38.9354 109.252 39.078 103.32 35.9184C108.797 40.236 118.893 38.9354 118.893 38.9354Z" fill="#005896"/>
<path fill-rule="evenodd" clip-rule="evenodd" d="M55.7931 32.6823C55.7931 32.6823 57.843 24.3772 71.3149 23.0027C66.3365 33.4571 55.7931 32.6823 55.7931 32.6823ZM69.851 24.1378C65.4592 29.1872 56.4075 32.4658 56.4075 32.4658C56.4075 32.4658 66.3048 30.1072 69.851 24.1378Z" fill="#005896"/>
<path fill-rule="evenodd" clip-rule="evenodd" d="M67.2083 116.628C67.1467 114.447 63.6885 104.183 54.0608 101.697C55.8796 110.554 60.1893 112.462 60.1893 112.462C60.1893 112.462 54.7249 110.134 47.9475 113.576C54.7904 119.509 65.3306 117.844 67.2083 116.628ZM62.9662 114.13C62.9662 114.13 55.7432 111.928 49.1989 113.52C55.5955 110.695 62.9662 114.13 62.9662 114.13ZM65.9291 115.281C65.9291 115.281 61.4559 106.846 55.8134 103.205C62.269 105.898 65.9291 115.281 65.9291 115.281Z" fill="#005896"/>
<path fill-rule="evenodd" clip-rule="evenodd" d="M52.8809 110.948C53.7317 108.934 54.8473 98.1728 47.1033 92.0013C45.0779 100.815 48.2137 104.303 48.2137 104.303C48.2137 104.303 44.1993 99.9638 36.589 100.352C40.361 108.538 50.6628 111.295 52.8809 110.948ZM50.0517 106.95C50.0517 106.95 44.382 102.012 37.753 100.809C44.7608 100.828 50.0517 106.95 50.0517 106.95ZM52.2744 109.201C52.2744 109.201 51.7043 99.695 48.074 94.0873C52.8398 99.1608 52.2744 109.201 52.2744 109.201Z" fill="#005896"/>
<path fill-rule="evenodd" clip-rule="evenodd" d="M42.0904 99.8775C43.6503 98.3317 48.8088 88.7888 44.0072 80.1816C38.7534 87.5811 40.3186 91.9818 40.3186 91.9818C40.3186 91.9818 38.2667 86.4649 31.0742 83.9781C31.4271 92.9646 39.9048 99.3695 42.0904 99.8775ZM41.0045 95.1192C41.0045 95.1192 37.6503 88.4292 31.976 84.8367C38.4548 87.4745 41.0045 95.1192 41.0045 95.1192ZM42.199 98.0336C42.199 98.0336 45.3155 89.0229 44.1059 82.4748C46.5716 88.953 42.199 98.0336 42.199 98.0336Z" fill="#005896"/>
<path fill-rule="evenodd" clip-rule="evenodd" d="M35.5767 67.447C37.6676 66.7421 46.5683 60.4367 46.1168 50.6191C38.0907 54.9616 37.5233 59.5918 37.5233 59.5918C37.5233 59.5918 38.1542 53.7473 32.817 48.3756C29.1085 56.5892 33.8439 66.0366 35.5767 67.447ZM36.734 62.705C36.734 62.705 36.7214 55.2402 33.2414 49.5395C37.8709 54.7354 36.734 62.705 36.734 62.705ZM36.5003 65.8411C36.5003 65.8411 43.3306 59.1204 45.1786 52.7194C44.488 59.6062 36.5003 65.8411 36.5003 65.8411Z" fill="#005896"/>
<path fill-rule="evenodd" clip-rule="evenodd" d="M37.1617 52.4141C39.3566 52.6665 50.1384 50.7598 54.0104 41.7067C44.8739 42.2134 42.3433 46.1518 42.3433 46.1518C42.3433 46.1518 45.4599 41.145 42.9843 34.0273C36.0573 39.864 36.2122 50.4047 37.1617 52.4141ZM40.2736 48.6261C40.2736 48.6261 43.5166 41.8832 42.8598 35.2586C44.7739 41.9159 40.2736 48.6261 40.2736 48.6261ZM38.6951 51.3568C38.6951 51.3568 47.7899 48.1959 52.2478 43.2034C48.6234 49.1264 38.6951 51.3568 38.6951 51.3568Z" fill="#005896"/>
<path fill-rule="evenodd" clip-rule="evenodd" d="M44.8783 39.403C46.8487 40.3903 57.6325 42.2866 64.4383 35.1167C55.6885 32.4691 51.9344 35.2991 51.9344 35.2991C51.9344 35.2991 56.6135 31.6668 56.785 24.1431C48.2405 27.251 44.6922 37.1928 44.8783 39.403ZM49.125 36.9129C49.125 36.9129 54.5312 31.6949 56.2368 25.2553C55.6991 32.1559 49.125 36.9129 49.125 36.9129ZM46.6878 38.9354C46.6878 38.9354 56.3281 39.078 62.2606 35.9184C56.7837 40.236 46.6878 38.9354 46.6878 38.9354Z" fill="#005896"/>
<path fill-rule="evenodd" clip-rule="evenodd" d="M37.4338 84.2404C39.2136 82.947 45.7824 74.2901 42.3626 65.061C36.0302 71.5862 36.8988 76.1707 36.8988 76.1707C36.8988 76.1707 35.7209 70.4092 28.9952 66.871C27.959 75.8058 35.3522 83.4099 37.4338 84.2404ZM37.0942 79.3741C37.0942 79.3741 34.8092 72.2584 29.754 67.8551C35.7514 71.4358 37.0942 79.3741 37.0942 79.3741ZM37.8258 82.4343C37.8258 82.4343 42.2937 73.9965 42.107 67.3431C43.5458 74.1161 37.8258 82.4343 37.8258 82.4343Z" fill="#005896"/>
<path fill-rule="evenodd" clip-rule="evenodd" d="M130.4 84.2501C132.378 83.2006 138.889 74.8471 136.875 66.0771C130.579 70.317 130.043 76.1706 130.043 76.1706C130.043 76.1706 130.401 71.5201 123.387 65.7142C121.005 75.2558 128.488 83.1555 130.4 84.2501ZM130.202 79.376C130.202 79.376 130.662 71.3403 136.229 67.1371C131.69 72.057 130.202 79.376 130.202 79.376ZM129.811 82.497C129.811 82.497 123.209 74.8426 123.893 67.9551C124.44 74.5889 129.811 82.497 129.811 82.497Z" fill="#005896"/>
<path fill-rule="evenodd" clip-rule="evenodd" d="M68.9764 94.787V97.1587H67.6508V94.8125L65.3354 91.2083H66.8854L68.3222 93.5969L69.7855 91.2083H71.2918L68.9764 94.787Z" fill="#005896"/>
<path fill-rule="evenodd" clip-rule="evenodd" d="M72.8927 97.1587V91.2083H77.4288V92.3728H74.201V93.5799H77.0408V94.7445H74.201V95.9941H77.4719V97.1587H72.8927Z" fill="#005896"/>
<path fill-rule="evenodd" clip-rule="evenodd" d="M82.086 92.7384L81.2855 94.668H82.8865L82.086 92.7384ZM83.9101 97.1587L83.3592 95.8241H80.8114L80.2605 97.1587H78.9092L81.4914 91.1658H82.7137L85.2959 97.1587H83.9101Z" fill="#005896"/>
<path fill-rule="evenodd" clip-rule="evenodd" d="M90.6756 93.2399C90.6756 92.9561 90.5842 92.7436 90.4001 92.6023C90.2167 92.4605 89.9611 92.3898 89.6341 92.3898H88.3171V94.0985H89.6599C89.987 94.0985 90.2379 94.022 90.4134 93.8689C90.5875 93.7159 90.6756 93.5119 90.6756 93.2569V93.2399ZM90.6497 97.1587L89.3586 95.2545H88.3171V97.1587H86.9916V91.2083H89.746C90.463 91.2083 91.0212 91.3809 91.4198 91.7268C91.819 92.072 92.0183 92.554 92.0183 93.1719V93.1889C92.0183 93.6702 91.8991 94.0631 91.6608 94.3659C91.4231 94.6693 91.1112 94.8916 90.7272 95.0335L92.1991 97.1587H90.6497Z" fill="#005896"/>
<path fill-rule="evenodd" clip-rule="evenodd" d="M98.1817 96.185C98.0732 96.4145 97.9229 96.6074 97.7289 96.763C97.5349 96.9193 97.3031 97.0383 97.035 97.12C96.7655 97.2024 96.4675 97.2436 96.1405 97.2436C95.6816 97.2436 95.2314 97.1651 94.7891 97.0095C94.3475 96.8539 93.9462 96.6146 93.5847 96.2915L94.3673 95.365C94.6428 95.586 94.9255 95.7619 95.2155 95.892C95.5048 96.0221 95.8226 96.0875 96.1663 96.0875C96.4417 96.0875 96.6556 96.0378 96.8079 95.9384C96.9595 95.8397 97.0363 95.7024 97.0363 95.5265V95.5095C97.0363 95.4245 97.0197 95.3493 96.988 95.2839C96.9568 95.2192 96.8966 95.1583 96.8072 95.1014C96.7178 95.0446 96.5947 94.9877 96.4358 94.9314C96.2775 94.8746 96.0723 94.815 95.8193 94.7529C95.5141 94.679 95.238 94.5966 94.9904 94.5064C94.7427 94.4155 94.5329 94.3037 94.3607 94.1703C94.1879 94.0376 94.0541 93.8715 93.9588 93.6733C93.8641 93.4746 93.8165 93.2281 93.8165 92.9338V92.9168C93.8165 92.6448 93.8674 92.3996 93.9707 92.1812C94.0734 91.9634 94.217 91.7744 94.4024 91.6162C94.5872 91.4573 94.809 91.3357 95.0659 91.2507C95.3234 91.1657 95.6068 91.1232 95.9167 91.1232C96.3583 91.1232 96.7642 91.1879 97.1349 91.3187C97.5051 91.4488 97.8447 91.6358 98.1546 91.8797L97.466 92.8658C97.1965 92.684 96.9323 92.5415 96.6748 92.4362C96.4159 92.3316 96.1577 92.2793 95.8994 92.2793C95.6412 92.2793 95.4479 92.329 95.3188 92.4277C95.1897 92.5271 95.1248 92.6507 95.1248 92.7978V92.8148C95.1248 92.9109 95.1433 92.9946 95.1811 93.0652C95.2188 93.1365 95.2857 93.1999 95.3843 93.2568C95.4817 93.3131 95.6154 93.3673 95.7849 93.4183C95.9551 93.4693 96.1689 93.5288 96.4285 93.5968C96.733 93.676 97.0052 93.7656 97.2435 93.8643C97.4819 93.9637 97.6838 94.0827 97.848 94.2213C98.0116 94.3606 98.1354 94.5234 98.2188 94.7104C98.3023 94.8974 98.344 95.1211 98.344 95.382V95.399C98.344 95.6939 98.2897 95.9554 98.1817 96.185Z" fill="#005896"/>
<path fill-rule="evenodd" clip-rule="evenodd" d="M66.5485 49.0388C66.4459 49.1185 66.334 49.1879 66.2121 49.2454C66.0903 49.3029 65.9572 49.3468 65.8122 49.3762C65.6679 49.4056 65.505 49.4206 65.3249 49.4206C65.0528 49.4206 64.8005 49.3716 64.5675 49.2742C64.3344 49.1761 64.1331 49.0427 63.9636 48.8733C63.7941 48.7046 63.6617 48.5045 63.5664 48.275C63.471 48.0449 63.4233 47.799 63.4233 47.5374V47.527C63.4233 47.2654 63.471 47.0202 63.5664 46.792C63.6617 46.5631 63.7941 46.363 63.9636 46.1898C64.1331 46.0178 64.3364 45.8818 64.5728 45.7824C64.8091 45.683 65.0707 45.6333 65.3567 45.6333C65.5302 45.6333 65.6878 45.647 65.8308 45.6752C65.9738 45.7026 66.1036 45.7412 66.2201 45.7902C66.3366 45.8386 66.4445 45.8981 66.5432 45.9681C66.6419 46.0381 66.7339 46.1146 66.8186 46.1983L66.2995 46.7887C66.1552 46.6599 66.0076 46.5592 65.8573 46.486C65.707 46.4127 65.5388 46.3761 65.3514 46.3761C65.1958 46.3761 65.0521 46.4055 64.9197 46.4651C64.7873 46.5246 64.6734 46.6063 64.5781 46.7109C64.4827 46.8155 64.4086 46.9365 64.3556 47.0745C64.3026 47.2118 64.2761 47.3596 64.2761 47.5165V47.527C64.2761 47.6839 64.3026 47.8323 64.3556 47.9716C64.4086 48.1109 64.4821 48.2325 64.5754 48.3378C64.6688 48.4424 64.782 48.5248 64.9144 48.5863C65.0468 48.6471 65.1925 48.6778 65.3514 48.6778C65.5633 48.6778 65.7427 48.6392 65.889 48.5627C66.0354 48.4862 66.1817 48.3816 66.326 48.2489L66.8451 48.7668C66.7498 48.8681 66.6511 48.9583 66.5485 49.0388Z" fill="#005896"/>
<path fill-rule="evenodd" clip-rule="evenodd" d="M67.4966 49.3578V45.696H70.288V46.4127H68.3017V47.1555H70.0497V47.8722H68.3017V48.6412H70.3145V49.3578H67.4966Z" fill="#005896"/>
<path fill-rule="evenodd" clip-rule="evenodd" d="M71.0455 49.3578V45.696H71.8613V48.6307H73.7099V49.3578H71.0455Z" fill="#005896"/>
<path fill-rule="evenodd" clip-rule="evenodd" d="M74.3241 49.3578V45.696H77.1162V46.4127H75.1292V47.1555H76.8772V47.8722H75.1292V48.6412H77.1427V49.3578H74.3241Z" fill="#005896"/>
<path fill-rule="evenodd" clip-rule="evenodd" d="M80.2143 48.2436C80.2143 48.1213 80.1666 48.0246 80.0719 47.9533C79.9759 47.8814 79.823 47.846 79.6104 47.846H78.6676V48.6516H79.6369C79.817 48.6516 79.9587 48.6189 80.0607 48.5549C80.1633 48.4901 80.2143 48.3901 80.2143 48.2541V48.2436ZM80.0077 46.7789C80.0077 46.6566 79.962 46.5631 79.87 46.499C79.7779 46.4343 79.6455 46.4022 79.4727 46.4022H78.6676V47.1765H79.4197C79.5998 47.1765 79.7428 47.1457 79.8488 47.0849C79.9547 47.0234 80.0077 46.9247 80.0077 46.7887V46.7789ZM80.9221 48.7929C80.8565 48.9184 80.7632 49.0224 80.6413 49.1067C80.5195 49.1904 80.3738 49.2532 80.2024 49.2951C80.0315 49.3363 79.8422 49.3578 79.6336 49.3578H77.873V45.696H79.5919C79.9719 45.696 80.2705 45.781 80.4877 45.9524C80.7049 46.123 80.8128 46.3532 80.8128 46.6429V46.6527C80.8128 46.758 80.7996 46.8502 80.7731 46.9306C80.7473 47.0104 80.7115 47.083 80.6685 47.1477C80.6248 47.2118 80.5731 47.2687 80.5155 47.3177C80.4579 47.3661 80.3957 47.4079 80.3288 47.4426C80.5427 47.5237 80.7115 47.6322 80.8347 47.7695C80.9578 47.9075 81.0194 48.0984 81.0194 48.343V48.3535C81.0194 48.5209 80.9863 48.6673 80.9221 48.7929Z" fill="#005896"/>
<path fill-rule="evenodd" clip-rule="evenodd" d="M83.9645 46.9463C83.9645 46.7717 83.9082 46.6409 83.795 46.554C83.6824 46.4663 83.5248 46.4232 83.3235 46.4232H82.5131V47.4746H83.3394C83.5407 47.4746 83.695 47.4276 83.8029 47.3334C83.9102 47.2386 83.9645 47.1137 83.9645 46.9567V46.9463ZM83.9486 49.3578L83.154 48.1861H82.5131V49.3578H81.6974V45.696H83.3924C83.8334 45.696 84.1777 45.8026 84.4226 46.0151C84.6683 46.2277 84.7914 46.5245 84.7914 46.9044V46.9149C84.7914 47.2111 84.7173 47.4531 84.5709 47.6394C84.4246 47.8258 84.2333 47.9624 83.9962 48.0501L84.902 49.3578H83.9486Z" fill="#005896"/>
<path fill-rule="evenodd" clip-rule="evenodd" d="M87.1638 46.6377L86.6712 47.8245H87.657L87.1638 46.6377ZM88.2867 49.3579L87.9477 48.5366H86.3798L86.0408 49.3579H85.2092L86.7983 45.6699H87.5505L89.1395 49.3579H88.2867Z" fill="#005896"/>
<path fill-rule="evenodd" clip-rule="evenodd" d="M90.9193 46.4389V49.3578H90.1036V46.4389H88.9753V45.696H92.0475V46.4389H90.9193Z" fill="#005896"/>
<path fill-rule="evenodd" clip-rule="evenodd" d="M92.7095 49.3578H93.5252V45.696H92.7095V49.3578Z" fill="#005896"/>
<path fill-rule="evenodd" clip-rule="evenodd" d="M97.0529 49.3578L95.2573 47.03V49.3578H94.4521V45.696H95.2043L96.9417 47.9507V45.696H97.7468V49.3578H97.0529Z" fill="#005896"/>
<path fill-rule="evenodd" clip-rule="evenodd" d="M101.325 49.2506C101.062 49.3638 100.761 49.4206 100.422 49.4206C100.132 49.4206 99.8681 49.3736 99.6298 49.2794C99.3914 49.1852 99.1868 49.0545 99.0153 48.8864C98.8439 48.7197 98.7108 48.5209 98.6154 48.2907C98.5201 48.0606 98.4724 47.8095 98.4724 47.5374V47.527C98.4724 47.2654 98.5207 47.0202 98.6181 46.792C98.7154 46.5631 98.8505 46.363 99.0233 46.1898C99.1961 46.0178 99.4014 45.8818 99.6377 45.7824C99.8741 45.683 100.134 45.6333 100.416 45.6333C100.583 45.6333 100.734 45.6444 100.869 45.6673C101.005 45.6895 101.131 45.7222 101.248 45.7641C101.365 45.8059 101.474 45.8582 101.576 45.921C101.678 45.9838 101.778 46.0551 101.873 46.1348L101.359 46.7475C101.288 46.688 101.218 46.6357 101.147 46.5906C101.076 46.5448 101.004 46.5069 100.928 46.4749C100.851 46.4441 100.769 46.4199 100.681 46.4023C100.593 46.3846 100.496 46.3761 100.39 46.3761C100.242 46.3761 100.103 46.4069 99.9741 46.4677C99.845 46.5291 99.7324 46.6109 99.6351 46.7142C99.5378 46.8175 99.4623 46.9378 99.4073 47.0758C99.353 47.2138 99.3252 47.3615 99.3252 47.5191V47.5296C99.3252 47.697 99.353 47.852 99.4073 47.9932C99.4623 48.1351 99.5397 48.2587 99.6404 48.3633C99.741 48.4679 99.8589 48.549 99.9953 48.6066C100.131 48.6647 100.282 48.6935 100.448 48.6935C100.752 48.6935 101.008 48.6196 101.216 48.4718V47.9455H100.395V47.2497H102.005V48.84C101.815 49.0002 101.588 49.1369 101.325 49.2506Z" fill="#005896"/>
<path fill-rule="evenodd" clip-rule="evenodd" d="M78.1856 53.8043C78.1856 53.6474 78.1585 53.4989 78.1035 53.3597C78.0492 53.2197 77.9718 53.0981 77.8705 52.9935C77.7698 52.8889 77.6506 52.8058 77.5129 52.745C77.3752 52.6842 77.2256 52.6535 77.0633 52.6535C76.8965 52.6535 76.7455 52.6829 76.6098 52.7424C76.4734 52.8019 76.3575 52.8836 76.2602 52.9883C76.1629 53.0929 76.0874 53.2139 76.0324 53.3518C75.9775 53.4898 75.9503 53.6369 75.9503 53.7939V53.8043C75.9503 53.9613 75.9775 54.1097 76.0324 54.249C76.0874 54.3882 76.1649 54.5105 76.2655 54.6151C76.3661 54.7198 76.4847 54.8022 76.6204 54.8636C76.7561 54.9244 76.9071 54.9552 77.0733 54.9552C77.2355 54.9552 77.3858 54.9251 77.5235 54.8662C77.6612 54.8067 77.7791 54.725 77.8757 54.6204C77.9731 54.5158 78.0492 54.3941 78.1035 54.2568C78.1585 54.1188 78.1856 53.9717 78.1856 53.8148V53.8043ZM78.8901 54.5393C78.7914 54.7675 78.6544 54.9682 78.4796 55.1409C78.3055 55.3135 78.0962 55.4495 77.8546 55.5489C77.6129 55.6483 77.3487 55.698 77.0633 55.698C76.7766 55.698 76.5138 55.6483 76.2734 55.5489C76.0331 55.4495 75.8259 55.3155 75.6511 55.1461C75.4763 54.9767 75.3405 54.778 75.2432 54.5498C75.1459 54.3215 75.0975 54.0763 75.0975 53.8148V53.8043C75.0975 53.5428 75.1472 53.2976 75.2458 53.0693C75.3445 52.8405 75.4816 52.6404 75.6564 52.4678C75.8312 52.2951 76.0397 52.1591 76.2814 52.0597C76.5231 51.9603 76.7872 51.9106 77.0733 51.9106C77.3593 51.9106 77.6222 51.9603 77.8632 52.0597C78.1029 52.1591 78.3101 52.2932 78.4849 52.4625C78.6603 52.6319 78.7961 52.8307 78.8928 53.0589C78.9901 53.2871 79.0384 53.5323 79.0384 53.7939V53.8043C79.0384 54.0659 78.9894 54.3104 78.8901 54.5393Z" fill="#005896"/>
<path fill-rule="evenodd" clip-rule="evenodd" d="M81.6657 55.6613H80.9453L79.4463 51.9734H80.3468L81.3161 54.5523L82.2854 51.9734H83.1647L81.6657 55.6613Z" fill="#005896"/>
<path fill-rule="evenodd" clip-rule="evenodd" d="M83.7367 55.6352V51.9734H86.5288V52.6901H84.5425V53.4329H86.2898V54.1495H84.5425V54.9185H86.5553V55.6352H83.7367Z" fill="#005896"/>
<path fill-rule="evenodd" clip-rule="evenodd" d="M89.5527 53.2236C89.5527 53.049 89.4964 52.9183 89.3832 52.8313C89.27 52.7437 89.1131 52.7005 88.9118 52.7005H88.1014V53.752H88.9277C89.129 53.752 89.2839 53.7049 89.3912 53.6107C89.4991 53.5166 89.5527 53.391 89.5527 53.2341V53.2236ZM89.5362 55.6352L88.7423 54.4634H88.1014V55.6352H87.2856V51.9734H88.9806C89.4223 51.9734 89.7652 52.08 90.0109 52.2925C90.2559 52.505 90.379 52.8019 90.379 53.1818V53.1922C90.379 53.4885 90.3062 53.7304 90.1592 53.9168C90.0122 54.1031 89.8209 54.2398 89.5845 54.3274L90.4903 55.6352H89.5362Z" fill="#005896"/>
<path fill-rule="evenodd" clip-rule="evenodd" d="M96.0792 111.857C96.0792 111.612 86.5468 105.03 80.3005 114.077C74.0555 123.124 66.5359 121.942 66.5359 121.942C66.5359 121.942 76.6251 129.841 83.1946 119.309C89.764 108.777 96.0792 111.857 96.0792 111.857Z" fill="#005896"/>
<path fill-rule="evenodd" clip-rule="evenodd" d="M70.8356 122.49C70.8356 122.49 75.1373 122.558 79.2821 117.089C83.4276 111.62 85.8516 110.068 89.1363 110.203C85.4609 110.405 82.3742 114.449 79.9859 117.464C75.6849 122.896 70.8356 122.49 70.8356 122.49Z" fill="#005896"/>
<path fill-rule="evenodd" clip-rule="evenodd" d="M68.8817 111.857C68.8817 111.612 78.4135 105.03 84.6591 114.077C90.9048 123.124 98.4237 121.942 98.4237 121.942C98.4237 121.942 88.3345 129.841 81.7651 119.309C75.1956 108.777 68.8817 111.857 68.8817 111.857Z" fill="#005896"/>
<path fill-rule="evenodd" clip-rule="evenodd" d="M90.9656 122.585C90.9656 122.585 87.2253 122.643 83.6208 117.888C80.0163 113.133 77.9081 111.782 75.0518 111.899C78.2478 112.076 80.932 115.592 83.0083 118.214C86.7493 122.937 90.9656 122.585 90.9656 122.585Z" fill="#005896"/>
<path d="M85.5143 127.283C115.364 125.942 139.234 101.95 139.915 72.301M139.87 68.3972C138.512 38.9184 114.218 15.3443 84.1967 14.6721M80.2439 14.7166C50.3947 16.0571 26.5243 40.0497 25.8436 69.6985M25.8887 73.6022C27.246 103.081 51.5401 126.655 81.5615 127.327" stroke="#005896" stroke-width="2" stroke-linecap="round" stroke-linejoin="round"/>
<defs>
<filter id="filter0_d_70_2" x="-0.000610352" y="0" width="165.759" height="164" filterUnits="userSpaceOnUse" color-interpolation-filters="sRGB">
<feFlood flood-opacity="0" result="BackgroundImageFix"/>
<feColorMatrix in="SourceAlpha" type="matrix" values="0 0 0 0 0 0 0 0 0 0 0 0 0 0 0 0 0 0 127 0" result="hardAlpha"/>
<feOffset dy="11"/>
<feGaussianBlur stdDeviation="6"/>
<feColorMatrix type="matrix" values="0 0 0 0 0 0 0 0 0 0 0 0 0 0 0 0 0 0 0.1 0"/>
<feBlend mode="normal" in2="BackgroundImageFix" result="effect1_dropShadow_70_2"/>
<feBlend mode="normal" in="SourceGraphic" in2="effect1_dropShadow_70_2" result="shape"/>
</filter>
</defs>
</svg>
