<svg width="20" height="20" viewBox="0 0 20 20" fill="none" xmlns="http://www.w3.org/2000/svg">
<path d="M13.3334 5.83333C13.3334 5.61232 13.4212 5.40036 13.5775 5.24408C13.7337 5.0878 13.9457 5 14.1667 5C14.3877 5 14.5997 5.0878 14.756 5.24408C14.9122 5.40036 15 5.61232 15 5.83333C15 6.05435 14.9122 6.26631 14.756 6.42259C14.5997 6.57887 14.3877 6.66667 14.1667 6.66667C13.9457 6.66667 13.7337 6.57887 13.5775 6.42259C13.4212 6.26631 13.3334 6.05435 13.3334 5.83333Z" fill="white"/>
<path fill-rule="evenodd" clip-rule="evenodd" d="M9.99996 6.0415C8.95014 6.0415 7.94333 6.45854 7.201 7.20087C6.45866 7.9432 6.04163 8.95002 6.04163 9.99984C6.04163 11.0497 6.45866 12.0565 7.201 12.7988C7.94333 13.5411 8.95014 13.9582 9.99996 13.9582C11.0498 13.9582 12.0566 13.5411 12.7989 12.7988C13.5413 12.0565 13.9583 11.0497 13.9583 9.99984C13.9583 8.95002 13.5413 7.9432 12.7989 7.20087C12.0566 6.45854 11.0498 6.0415 9.99996 6.0415ZM7.29163 9.99984C7.29163 9.28154 7.57697 8.59267 8.08488 8.08476C8.59279 7.57685 9.28167 7.2915 9.99996 7.2915C10.7183 7.2915 11.4071 7.57685 11.915 8.08476C12.423 8.59267 12.7083 9.28154 12.7083 9.99984C12.7083 10.7181 12.423 11.407 11.915 11.9149C11.4071 12.4228 10.7183 12.7082 9.99996 12.7082C9.28167 12.7082 8.59279 12.4228 8.08488 11.9149C7.57697 11.407 7.29163 10.7181 7.29163 9.99984Z" fill="white"/>
<path fill-rule="evenodd" clip-rule="evenodd" d="M14.3817 2.36078C11.4695 2.03794 8.53053 2.03794 5.61834 2.36078C3.94167 2.54828 2.58751 3.86911 2.39084 5.55411C2.04534 8.50793 2.04534 11.492 2.39084 14.4458C2.58751 16.1308 3.94084 17.4516 5.61834 17.6391C8.53055 17.9616 11.4695 17.9616 14.3817 17.6391C16.0583 17.4516 17.4125 16.1308 17.6092 14.4458C17.9547 11.492 17.9547 8.50793 17.6092 5.55411C17.4125 3.86911 16.0592 2.54828 14.3817 2.36078ZM5.75667 3.60245C8.57693 3.28984 11.4231 3.28984 14.2433 3.60245C15.3517 3.72745 16.2392 4.60161 16.3683 5.69995C16.7025 8.55688 16.7025 11.443 16.3683 14.2999C16.3015 14.8375 16.0555 15.3368 15.6699 15.7172C15.2843 16.0977 14.7817 16.337 14.2433 16.3966C11.4231 16.7092 8.57692 16.7092 5.75667 16.3966C5.21829 16.337 4.71572 16.0977 4.33013 15.7172C3.94455 15.3368 3.69848 14.8375 3.63167 14.2999C3.29755 11.443 3.29755 8.55688 3.63167 5.69995C3.69848 5.16241 3.94455 4.6631 4.33013 4.28266C4.71572 3.90222 5.21829 3.66204 5.75667 3.60245Z" fill="white"/>
</svg>
