<svg width="17" height="16" viewBox="0 0 17 16" fill="none" xmlns="http://www.w3.org/2000/svg">
<path d="M3.78329 2.16652C3.78306 2.60855 3.60726 3.03239 3.29454 3.34479C2.98182 3.6572 2.55781 3.83258 2.11578 3.83236C1.67376 3.83214 1.24992 3.65633 0.937517 3.34361C0.625113 3.0309 0.44973 2.60688 0.449951 2.16486C0.450172 1.72283 0.625979 1.29899 0.938696 0.98659C1.25141 0.674185 1.67542 0.498803 2.11745 0.499024C2.55948 0.499245 2.98331 0.675051 3.29572 0.987768C3.60812 1.30049 3.78351 1.7245 3.78329 2.16652ZM3.83329 5.06652H0.499951V15.4999H3.83329V5.06652ZM9.09995 5.06652H5.78329V15.4999H9.06662V10.0249C9.06662 6.97486 13.0416 6.69152 13.0416 10.0249V15.4999H16.3333V8.89152C16.3333 3.74986 10.45 3.94152 9.06662 6.46652L9.09995 5.06652Z" fill="white"/>
</svg>
