<svg width="201" height="47" viewBox="0 0 201 47" fill="none" xmlns="http://www.w3.org/2000/svg">
<path fill-rule="evenodd" clip-rule="evenodd" d="M34.9448 39.5243V46.4004H33.9662V39.5243H31.4823V38.8083H37.4402V39.5243H34.9448Z" fill="black"/>
<path fill-rule="evenodd" clip-rule="evenodd" d="M55.6884 46.3792L53.6773 43.1361C53.226 43.1899 52.7656 43.1687 52.3028 43.1687V46.3792H51.3134V38.7864H52.3689C53.8749 38.7864 56.0074 39.0253 56.0074 40.9775C56.0074 41.7368 55.4255 42.659 54.6998 42.9404L56.8323 46.3792H55.6884ZM52.7325 39.535H52.3028V42.9836L52.8317 42.3663C53.941 42.3663 54.9304 42.2032 54.9304 40.8797C54.9304 39.698 53.6558 39.535 52.7325 39.535Z" fill="black"/>
<path fill-rule="evenodd" clip-rule="evenodd" d="M76.1701 46.3792L75.3121 44.2639H72.0041L71.157 46.3792H70.1791L73.2457 38.7864H74.169L77.1487 46.3792H76.1701ZM73.6639 40.1319L72.3224 43.4941H74.9931L73.6639 40.1319Z" fill="black"/>
<path fill-rule="evenodd" clip-rule="evenodd" d="M90.9448 46.3792H91.9342V38.7864H90.9448V46.3792Z" fill="black"/>
<path fill-rule="evenodd" clip-rule="evenodd" d="M106.939 40.1963V46.3792H106.06V38.7864H106.962L111.788 43.9924V38.7864H112.667V46.4445L106.939 40.1963Z" fill="black"/>
<path fill-rule="evenodd" clip-rule="evenodd" d="M126.804 46.3792H127.795V38.7864H126.804V46.3792Z" fill="black"/>
<path fill-rule="evenodd" clip-rule="evenodd" d="M142.799 40.1963V46.3792H141.92V38.7864H142.822L147.648 43.9924V38.7864H148.527V46.4445L142.799 40.1963Z" fill="black"/>
<path fill-rule="evenodd" clip-rule="evenodd" d="M166.622 46.4984C164.182 46.4984 162.434 45.0664 162.434 42.5612C162.434 40.1858 164.236 38.678 166.566 38.678C167.358 38.678 168.325 38.8517 169.074 39.1338V40.0341C168.381 39.6435 167.513 39.4592 166.721 39.4592C164.819 39.4592 163.5 40.7061 163.5 42.6045C163.5 44.5681 164.764 45.7172 166.721 45.7172C167.414 45.7172 167.986 45.5655 168.611 45.2621V43.3531H166.5L166.864 42.5499H169.591V45.7278C168.744 46.2595 167.612 46.4984 166.622 46.4984Z" fill="black"/>
<path fill-rule="evenodd" clip-rule="evenodd" d="M50.7578 12.472V21.6098H47.9418V0H51.259C55.6394 0 61.4282 0.493751 61.4282 6.17379C61.4282 11.8235 55.0136 12.5031 50.7578 12.472ZM51.8532 2.12973H50.7578V12.0086L52.323 10.1564H53.011C55.5456 10.1564 58.4239 9.41541 58.4239 6.29742C58.4239 2.56205 54.763 2.12973 51.8532 2.12973Z" fill="black"/>
<path fill-rule="evenodd" clip-rule="evenodd" d="M63.304 21.6098H66.1199V0H63.304V21.6098Z" fill="black"/>
<path fill-rule="evenodd" clip-rule="evenodd" d="M78.353 2.0986V21.6712H75.5685V2.0986H68.4974V0.0614014H85.4564V2.0986H78.353Z" fill="black"/>
<path fill-rule="evenodd" clip-rule="evenodd" d="M107.356 21.6098L105.573 4.69253L97.4684 21.5787L89.5202 4.38385L87.8619 21.6409L84.9829 21.6098L87.3607 0H90.302L97.7183 15.4663L104.916 0H107.794L110.172 21.6098H107.356Z" fill="black"/>
<path fill-rule="evenodd" clip-rule="evenodd" d="M128.569 21.6098L126.128 15.59H116.711L114.301 21.6098H111.516L120.245 0H122.875L131.354 21.6098H128.569ZM121.435 3.8279L117.617 13.398H125.221L121.435 3.8279Z" fill="black"/>
<path fill-rule="evenodd" clip-rule="evenodd" d="M135.952 4.01296V21.6098H133.448V0H136.014L149.751 14.8179V0H152.254V21.7948L135.952 4.01296Z" fill="black"/>
<path fill-rule="evenodd" clip-rule="evenodd" d="M0.497834 44.4376C0.497834 44.4376 2.80517 32.1917 12.404 32.1712C22.0028 32.1537 187.075 32.1537 187.075 32.1537C187.075 32.1537 200.498 33.2065 200.498 16.5623C200.498 16.5623 197.17 27.8412 186.974 28.0096H12.4747C12.4747 28.0096 0.431229 27.1707 0.497834 44.4376Z" fill="#005896"/>
</svg>
