<svg width="233" height="55" viewBox="0 0 233 55" fill="none" xmlns="http://www.w3.org/2000/svg">
<path fill-rule="evenodd" clip-rule="evenodd" d="M40.1315 46.7507V54.884H38.9914V46.7507H36.0977V45.9038H43.0386V46.7507H40.1315Z" fill="black"/>
<path fill-rule="evenodd" clip-rule="evenodd" d="M64.2971 54.859L61.9542 51.0229C61.4285 51.0866 60.892 51.0615 60.3528 51.0615V54.859H59.2002V45.8779H60.4299C62.1844 45.8779 64.6688 46.1605 64.6688 48.4697C64.6688 49.3677 63.9908 50.4586 63.1454 50.7915L65.6298 54.859H64.2971ZM60.8535 46.7634H60.3528V50.8426L60.969 50.1123C62.2614 50.1123 63.414 49.9195 63.414 48.354C63.414 46.9563 61.9291 46.7634 60.8535 46.7634Z" fill="black"/>
<path fill-rule="evenodd" clip-rule="evenodd" d="M88.1587 54.859L87.1592 52.3569H83.3054L82.3184 54.859H81.1792L84.7518 45.8779H85.8274L89.2988 54.859H88.1587ZM85.239 47.4694L83.6762 51.4464H86.7875L85.239 47.4694Z" fill="black"/>
<path fill-rule="evenodd" clip-rule="evenodd" d="M105.371 54.859H106.524V45.8779H105.371V54.859Z" fill="black"/>
<path fill-rule="evenodd" clip-rule="evenodd" d="M124.004 47.5457V54.859H122.98V45.8779H124.031L129.654 52.0358V45.8779H130.677V54.9362L124.004 47.5457Z" fill="black"/>
<path fill-rule="evenodd" clip-rule="evenodd" d="M147.147 54.859H148.301V45.8779H147.147V54.859Z" fill="black"/>
<path fill-rule="evenodd" clip-rule="evenodd" d="M165.781 47.5457V54.859H164.757V45.8779H165.807L171.43 52.0358V45.8779H172.455V54.9362L165.781 47.5457Z" fill="black"/>
<path fill-rule="evenodd" clip-rule="evenodd" d="M193.536 55.0002C190.693 55.0002 188.656 53.3065 188.656 50.3433C188.656 47.5335 190.756 45.75 193.471 45.75C194.394 45.75 195.52 45.9554 196.393 46.2892V47.3541C195.585 46.892 194.574 46.674 193.651 46.674C191.435 46.674 189.898 48.1489 189.898 50.3944C189.898 52.717 191.372 54.0762 193.651 54.0762C194.458 54.0762 195.124 53.8968 195.853 53.5379V51.2799H193.394L193.818 50.3298H196.994V54.0887C196.007 54.7176 194.689 55.0002 193.536 55.0002Z" fill="black"/>
<path fill-rule="evenodd" clip-rule="evenodd" d="M58.5533 14.7523V25.5608H55.2727V0H59.1373C64.2405 0 70.9844 0.584026 70.9844 7.30257C70.9844 13.9852 63.5114 14.7891 58.5533 14.7523ZM59.8296 2.51912H58.5533V14.2041L60.3768 12.0134H61.1784C64.1312 12.0134 67.4844 11.1369 67.4844 7.4488C67.4844 3.03048 63.2195 2.51912 59.8296 2.51912Z" fill="black"/>
<path fill-rule="evenodd" clip-rule="evenodd" d="M73.1694 25.5608H76.4501V0H73.1694V25.5608Z" fill="black"/>
<path fill-rule="evenodd" clip-rule="evenodd" d="M90.7015 2.48242V25.6336H87.4576V2.48242H79.2197V0.0727539H98.9769V2.48242H90.7015Z" fill="black"/>
<path fill-rule="evenodd" clip-rule="evenodd" d="M124.49 25.5608L122.413 5.55049L112.971 25.524L103.711 5.18536L101.779 25.5976L98.4254 25.5608L101.196 0H104.622L113.262 18.2941L121.648 0H125.001L127.771 25.5608H124.49Z" fill="black"/>
<path fill-rule="evenodd" clip-rule="evenodd" d="M149.203 25.5608L146.36 18.4403H135.388L132.581 25.5608H129.337L139.506 0H142.569L152.448 25.5608H149.203ZM140.892 4.52777L136.444 15.8477H145.303L140.892 4.52777Z" fill="black"/>
<path fill-rule="evenodd" clip-rule="evenodd" d="M157.804 4.74667V25.5608H154.887V0H157.877L173.881 17.5271V0H176.796V25.7797L157.804 4.74667Z" fill="black"/>
<path fill-rule="evenodd" clip-rule="evenodd" d="M0.000320664 52.5623C0.000320664 52.5623 2.68837 38.0773 13.871 38.0531C25.0536 38.0325 217.363 38.0325 217.363 38.0325C217.363 38.0325 233 39.2777 233 19.5903C233 19.5903 229.124 32.9314 217.245 33.1306H13.9534C13.9534 33.1306 -0.0772741 32.1384 0.000320664 52.5623Z" fill="#005896"/>
</svg>
