<svg width="230" height="199" viewBox="0 0 230 199" fill="none" xmlns="http://www.w3.org/2000/svg">
<path d="M116.302 67.7333C122.07 67.2549 122.07 67.2549 122.07 67.2549L128.8 123.686L124.473 129.903C124.473 129.903 107.169 105.992 107.649 96.4269C108.13 86.8621 110.534 68.6896 116.302 67.7333Z" fill="#415A6B"/>
<path d="M0 153.856V199H230V166.687L0 153.856Z" fill="#F05540"/>
<path d="M230 185.181H0V199H230V185.181Z" fill="#F3705A"/>
<path d="M140.396 60.5459C140.396 60.5459 121.229 65.8156 118.833 66.7741C115.958 67.7321 113.083 68.6906 112.604 73.4811C112.125 78.272 109.729 98.3934 117.875 117.078L111.646 157.8L146.146 158.279L141.833 131.929C142.313 131.929 136.563 70.1274 140.396 60.5459Z" fill="#344A5E"/>
<path d="M182.084 62.4619C182.084 62.4619 203.646 65.8156 219.938 79.2296L205.083 158.278L140.396 164.985V151.092C143.75 140.552 165.313 96.9557 182.084 62.4619Z" fill="#344A5E"/>
<path d="M141.462 153.17C141.462 153.17 130.485 154.556 125.712 154.556C120.94 154.556 114.258 151.322 110.44 149.936C106.622 148.55 104.713 149.474 102.327 150.859C100.418 152.245 96.6001 162.871 96.6001 164.257C96.6001 165.643 118.554 168.415 124.281 167.491C130.008 166.567 131.917 166.105 135.735 166.105C139.553 166.105 147.667 166.105 147.667 166.105C147.667 166.105 153.393 154.094 141.462 153.17Z" fill="#FFD15C"/>
<path d="M102.407 150.157C100.471 151.621 97.5677 159.432 96.6001 162.849C97.0841 163.338 97.5677 164.314 98.5358 165.29C100.471 165.778 103.375 166.266 106.761 166.755C106.761 165.778 106.277 165.29 105.794 164.802C105.794 164.802 105.31 164.313 104.826 163.337C105.794 164.313 106.762 164.802 107.246 164.802C108.213 164.802 109.181 164.313 109.665 163.337C110.149 162.361 110.632 160.896 110.149 159.92C109.181 157.967 104.826 152.597 103.858 151.132C103.858 151.132 104.342 150.644 104.826 150.644C104.826 150.644 104.826 150.644 105.31 150.644C105.794 150.644 108.213 153.573 109.665 155.038C111.6 156.991 112.568 158.455 113.052 158.455C113.536 158.943 114.02 158.943 114.504 158.943C114.988 158.943 115.471 158.943 116.439 158.455C117.407 157.479 116.439 155.526 115.472 153.573C115.472 153.085 115.472 153.085 114.988 153.085C114.988 152.596 114.02 151.62 113.052 150.156C112.084 149.667 111.116 149.179 110.633 149.179C106.277 147.716 104.342 148.204 102.407 150.157Z" fill="#F7B64C"/>
<path d="M97.086 161.86C97.086 161.86 101.84 168.597 104.692 168.597C107.545 168.597 107.069 165.71 106.119 164.747C105.168 163.785 99.4632 157.048 99.4632 157.048L99.9388 156.566C99.9388 156.566 106.594 164.747 108.02 164.747C109.446 164.747 111.348 162.822 110.397 160.416C109.446 158.491 104.217 151.754 104.217 151.754C104.217 151.754 105.167 150.792 106.119 151.273C107.069 151.754 112.774 158.491 113.725 158.972C114.676 159.454 115.627 159.454 116.577 158.972C117.528 158.01 115.627 154.641 115.151 153.679C114.675 152.717 109.446 145.498 108.496 144.536C107.545 143.573 102.316 141.167 101.365 144.536C101.365 144.536 100.414 145.979 98.9882 145.979C97.562 145.979 96.1358 146.942 96.1358 148.867C94.7088 149.83 97.086 161.86 97.086 161.86Z" fill="#FFD15C"/>
<path d="M138.92 152.556C138.92 152.556 142.694 153.531 144.11 157.921C145.525 162.799 144.581 167.676 144.581 167.676H157.32V151.092L138.92 152.556Z" fill="#F3F3F3"/>
<path d="M132.503 40.8668L134.445 49.4254C134.445 49.4254 134.93 55.6068 143.666 64.1653L145.608 89.3655L164.05 87.4634C171.816 78.4292 176.669 73.1991 184.92 64.1649C184.92 64.1649 173.757 57.5084 172.786 54.6555C171.816 51.8026 171.816 40.8668 171.816 40.8668C171.816 40.8668 171.816 18.5195 167.933 10.9118C164.051 3.30398 132.989 9.0097 131.048 18.0439C129.591 27.5538 132.503 40.8668 132.503 40.8668Z" fill="#FFD15C"/>
<path d="M172.04 51.5928C162.855 69.3197 152.221 68.335 152.221 68.335C145.937 68.8276 143.52 64.888 143.52 64.888L144.487 80.153C165.756 75.2287 171.557 53.5621 172.04 51.5928Z" fill="#F7B64C"/>
<path d="M143.459 64.4907L144.44 77.4258C144.44 77.4258 141.005 78.863 137.08 88.4444V69.7604L143.459 64.4907Z" fill="#E8EAE9"/>
<path d="M144.825 76.9979C144.825 76.9979 145.788 77.4819 147.232 79.417C148.195 80.8685 151.083 87.1586 151.083 87.1586C151.083 87.1586 153.009 82.804 153.49 80.8685C153.972 78.933 153.49 76.9979 154.934 76.0299C156.379 75.5459 160.711 75.5459 160.711 75.5459L177.56 76.0299L142.418 142.801L136.16 76.0304C136.16 76.0304 142.9 74.5788 144.825 76.9979Z" fill="#CED6E0"/>
<path d="M132.456 40.537C131.969 35.8255 131.969 31.1143 131.484 26.4028C131.484 24.518 130.997 23.1046 131.484 21.2203C131.97 19.3356 132.942 17.9222 134.4 17.4513C135.372 16.9801 136.831 16.9801 137.803 16.9801H157.734C159.678 16.9801 162.109 16.9801 163.567 18.3935C164.053 18.8648 164.539 19.8069 165.025 20.2782C170.859 26.874 166.484 37.2393 166.97 39.1241H175.72C175.72 38.6528 175.72 37.7106 175.72 37.2393C175.72 32.0569 175.72 26.874 175.72 21.2203C175.72 16.9801 175.72 12.2685 173.289 8.49949C170.859 4.2592 165.998 1.43235 161.137 0.49021C156.275 -0.451928 150.928 0.0189195 146.067 1.43235C142.664 2.37449 138.775 3.31707 136.345 5.67263C134.4 7.55735 132.942 9.91292 131.97 12.2685C129.539 14.624 128.567 17.4509 128.081 20.749C127.595 24.0472 128.081 27.3449 128.567 30.643C129.539 33.9412 132.456 40.537 132.456 40.537Z" fill="#415A6B"/>
<path d="M177.788 37.3061C178.006 33.0781 176.255 29.551 173.876 29.4281C171.498 29.3053 169.392 32.6331 169.174 36.8611C168.955 41.0891 170.707 44.6162 173.085 44.7391C175.464 44.862 177.569 41.5341 177.788 37.3061Z" fill="#FFD15C"/>
<path d="M173.463 56.1992C173.463 56.1992 174.921 63.7689 155.48 76.5424C155.48 76.5424 166.659 82.2195 167.631 91.2085L181.24 62.3496L173.463 56.1992Z" fill="#E8EAE9"/>
<path d="M176.333 58.1504C176.333 58.1504 172.5 68.6903 166.271 80.1882C160.041 91.6862 140.875 143.427 140.396 151.092C140.396 151.092 144.708 140.552 147.583 136.241C150.458 131.929 182.083 87.3745 182.083 87.3745L176.333 82.1047L182.083 79.2302C182.083 79.2302 185.916 66.7743 184.958 63.4206C184.479 60.0669 183.042 61.0249 176.333 58.1504Z" fill="#415A6B"/>
<path d="M144.708 139.594L143.271 142.948C135.604 122.347 130.333 101.747 129.375 82.1046L134.646 78.2721L132.25 75.8768L140.875 60.5464C141.833 61.5044 142.313 62.4629 143.271 63.4209C142.791 65.8161 140.875 80.1885 141.833 98.8727C142.792 118.994 146.146 133.845 144.708 139.594Z" fill="#415A6B"/>
<path d="M192.624 113.724C192.624 113.724 194.062 99.8307 202.208 88.3328C210.353 76.8349 220.416 79.2301 220.416 79.2301C220.416 79.2301 225.208 82.1046 223.291 93.6026C221.374 105.1 221.853 126.659 221.853 134.325C221.853 141.99 223.291 162.111 210.353 165.465C197.416 169.297 150.937 169.297 150.937 169.297C150.937 169.297 153.812 156.841 149.499 153.487C145.187 150.613 145.187 150.613 145.187 150.613C145.187 150.613 159.562 148.218 166.749 148.218C173.937 148.218 188.791 145.343 188.791 145.343C188.791 145.343 189.27 140.074 190.708 136.241C192.145 132.408 191.666 125.701 192.145 122.347C192.624 118.994 192.624 113.724 192.624 113.724Z" fill="#415A6B"/>
<path d="M123.625 130.492C123.625 132.887 122.187 153.008 122.187 153.008C118.833 151.092 115.958 149.655 113.083 148.697C99.6662 143.906 91.5205 150.134 91.5205 150.134V145.343C91.5205 145.343 96.7912 130.491 98.708 125.222C100.625 119.952 102.062 111.328 102.062 107.975C102.062 104.621 103.5 104.142 103.979 101.746C104.458 99.3512 106.375 84.4995 109.25 75.8761C112.125 67.2526 115.479 67.7318 115.479 67.7318C114.042 68.6899 112.604 70.1271 112.125 73.0016C111.646 77.7925 109.25 97.9139 117.396 116.598C117.875 117.077 123.625 128.096 123.625 130.492Z" fill="#415A6B"/>
<path d="M136.001 170.698C136.001 170.698 138.92 168.781 138.92 167.823L88.3203 163.991L96.1051 175.968L136.001 170.698Z" fill="#ADB3BA"/>
<path d="M138.479 167.38C138 168.818 113.083 171.692 106.854 173.129C103.5 173.609 101.104 174.087 99.6665 174.087L100.146 178.399C100.146 178.399 128.896 174.087 134.646 173.608C139.917 172.651 138.479 167.38 138.479 167.38Z" fill="#CED6E0"/>
<path d="M100.145 177.921L89.6035 109.412C89.6035 107.975 88.166 106.538 86.7285 106.538L1.91602 101.268L13.8953 165.465L100.145 177.921Z" fill="#CED6E0"/>
<path d="M99.7731 177.81C99.2974 177.81 98.3464 177.33 98.3464 176.849L88.3598 109.109C88.3598 108.148 87.4088 107.667 86.4574 107.187L3.71073 101.902C3.23502 101.902 2.75977 101.421 2.75977 100.461C2.75977 99.9801 3.23547 99.5 4.18643 99.5L86.9331 105.265C88.8355 105.265 90.7374 107.187 91.2131 109.109L101.2 176.849C100.725 177.33 100.249 177.81 99.7731 177.81Z" fill="#E8EAE9"/>
</svg>
